<svg xmlns="http://www.w3.org/2000/svg" width="22" height="22" viewBox="0 0 22 22" fill="none">
  <path d="M5.61759 0H16.3697C16.5609 0.0984135 16.796 0.187999 16.8501 0.44014C16.9118 0.728197 16.8866 1.24021 16.8865 1.54978L16.8861 3.03376L16.8867 10.0378C17.1215 10.0304 17.4081 10.0401 17.6494 10.0401L19.2934 10.0398C19.4656 10.04 19.6401 10.0391 19.812 10.0413C20.0904 10.0447 20.3375 10.0544 20.5412 9.8295C20.6553 9.70278 20.7136 9.53557 20.7032 9.36543C20.6919 9.18467 20.6319 9.06485 20.5029 8.93758C20.2846 8.72234 19.9781 8.81719 19.7383 8.67036C19.1812 8.32912 19.4154 7.47394 20.0841 7.47855C21.001 7.48488 21.795 8.14163 21.9607 9.0435C21.9669 9.07843 21.9853 9.15446 21.9983 9.18705V9.63083L21.9907 9.65041C21.9526 9.75105 21.9295 9.92298 21.8859 10.0468C21.71 10.5362 21.3459 10.9351 20.8745 11.1551C20.68 11.2454 20.4718 11.3029 20.2584 11.3251C20.0503 11.347 19.701 11.3362 19.4788 11.3361L18.0879 11.3358L17.2923 11.3366C17.1852 11.3371 16.9819 11.3483 16.8879 11.3307C16.8714 12.6115 16.8824 13.9349 16.8866 15.218L19.045 15.2205H19.7289C20.0008 15.2206 20.2697 15.2109 20.5354 15.2784C20.8821 15.3665 21.1959 15.5468 21.4462 15.8013C21.6715 16.0277 21.8345 16.3085 21.9191 16.6166C21.9358 16.6794 21.9793 16.8864 21.9983 16.9315V17.3747C21.9502 17.503 21.9341 17.6521 21.8872 17.7859C21.7147 18.2734 21.3547 18.672 20.8871 18.8932C20.6098 19.0261 20.1458 19.146 19.8456 19.036C19.6812 18.9747 19.5485 18.8493 19.478 18.6886C19.4057 18.5255 19.4144 18.3402 19.48 18.1766C19.5399 18.0273 19.6573 17.9083 19.8059 17.8464C19.9206 17.7981 20.0627 17.7896 20.1829 17.7694C20.8047 17.6649 20.8843 16.8033 20.3335 16.5719C20.1105 16.4781 19.4725 16.5127 19.2062 16.5128L17.5112 16.5143C17.3968 16.5144 17.0016 16.5246 16.9127 16.5109L16.8972 16.5086C16.8942 16.5081 16.8911 16.5075 16.888 16.507C16.8746 17.6561 16.8863 18.8264 16.8863 19.9769V20.8624C16.8863 21.2021 16.9433 21.557 16.6965 21.8065C16.5799 21.9242 16.4781 21.9262 16.3675 21.9983H5.62916C5.38115 21.8852 5.16936 21.7835 5.12822 21.4744C5.10268 21.2825 5.11296 21.0861 5.11291 20.8924L5.1128 19.9191L5.11374 16.5183C4.90949 16.5216 4.68265 16.5141 4.47528 16.514L2.86244 16.5139C2.60953 16.5138 1.85702 16.4828 1.66291 16.5704C1.50661 16.6414 1.3858 16.7727 1.32807 16.9344C1.27106 17.0972 1.28075 17.276 1.35502 17.4317C1.52599 17.7841 1.83355 17.7513 2.14518 17.8322C2.39764 17.8976 2.57711 18.1872 2.57013 18.4366C2.56792 18.5153 2.5636 18.5825 2.52772 18.6557C2.41588 18.9374 2.17332 19.0842 1.87376 19.0772C1.0321 19.0577 0.272834 18.4565 0.0635542 17.641C0.043571 17.5631 0.031934 17.4624 0 17.3897V16.8975C0.0360332 16.8288 0.0487775 16.6988 0.076144 16.6105C0.175847 16.2887 0.330804 16.0194 0.569729 15.781C0.815182 15.5335 1.12481 15.3594 1.46382 15.2782C1.82295 15.1915 2.56774 15.2207 2.97252 15.2207L5.11224 15.2221L5.11399 11.3398L2.94642 11.3354L2.23725 11.3361C2.08692 11.3362 1.9094 11.3404 1.76166 11.3269C1.60369 11.3118 1.44807 11.2781 1.29803 11.2264C0.689776 11.0117 0.2282 10.5163 0.0620678 9.8947C0.0422182 9.82042 0.0356944 9.71966 0 9.65347V9.15272C0.0420225 9.07017 0.0602751 8.91481 0.0896981 8.82123C0.340153 8.02462 1.08958 7.47113 1.92608 7.47759C2.10826 7.47901 2.28209 7.55724 2.40542 7.69129C2.51905 7.81615 2.57791 7.98134 2.56885 8.14994C2.56195 8.27427 2.52046 8.3942 2.44905 8.49621C2.17185 8.8866 1.80883 8.65336 1.48407 8.94514C1.12291 9.26963 1.30327 9.94498 1.78881 10.0231C2.05121 10.0653 2.43872 10.04 2.72012 10.0398L4.30058 10.0399C4.56201 10.0399 4.85174 10.0323 5.11016 10.0407C5.12558 9.22387 5.11337 8.36548 5.11338 7.54558L5.11324 2.90423L5.11312 1.53731C5.11309 1.23 5.08676 0.720193 5.15074 0.430014C5.204 0.188443 5.42868 0.0952814 5.61759 0ZM6.4022 18.1293L13.3978 18.1312H14.9928C15.0791 18.1312 15.5404 18.1365 15.588 18.1234L15.5935 18.1174C15.6093 17.3069 15.5969 16.4589 15.5969 15.6459L15.5967 11.0793C15.5967 10.4087 15.5852 9.69691 15.5989 9.02975C14.8015 9.02019 13.9941 9.02612 13.196 9.02606L9.00349 9.02599L7.21337 9.02615C7.06297 9.02629 6.51956 9.03798 6.40431 9.02073C6.39113 9.89022 6.40208 10.7877 6.40223 11.6589L6.4022 18.1293ZM6.4022 7.73161L13.3933 7.73357L14.9873 7.73352C15.0747 7.73352 15.5404 7.73881 15.588 7.72571L15.5935 7.71978C15.6045 7.14513 15.5969 6.54864 15.5969 5.97279L15.5968 2.81285C15.5967 2.31636 15.5882 1.79043 15.5989 1.29598C14.8015 1.28643 13.9941 1.29235 13.196 1.29228L9.00349 1.29222L7.21337 1.29238C7.06309 1.29252 6.51939 1.3042 6.4043 1.28695C6.40083 1.83789 6.40012 2.38882 6.40217 2.93977C6.40263 4.52857 6.41898 6.14538 6.4022 7.73161ZM6.4022 20.7072L13.3947 20.7091H14.9875C15.075 20.7091 15.5404 20.7144 15.588 20.7013L15.5935 20.6954C15.6022 20.2741 15.5884 19.846 15.5989 19.4274C14.8015 19.4178 13.9941 19.4237 13.196 19.4237L9.00349 19.4236L7.21337 19.4238C7.06299 19.4239 6.51954 19.4356 6.4043 19.4183C6.39733 19.8478 6.40641 20.2783 6.4022 20.7072Z" fill="black"/>
  <path d="M9.64426 12.9376C9.99664 12.9015 10.3119 13.157 10.3495 13.5093C10.3871 13.8615 10.1329 14.1778 9.78079 14.2169C9.4266 14.2563 9.10791 14.0002 9.07009 13.6458C9.03228 13.2914 9.28974 12.9739 9.64426 12.9376Z" fill="black"/>
  <path d="M12.2224 12.9376C12.5748 12.9015 12.89 13.157 12.9276 13.5093C12.9652 13.8615 12.711 14.1778 12.359 14.2169C12.0047 14.2563 11.686 14.0002 11.6482 13.6458C11.6104 13.2914 11.8679 12.9739 12.2224 12.9376Z" fill="black"/>
  <path d="M13.5122 10.3598C13.8644 10.3241 14.1793 10.5799 14.2166 10.932C14.254 11.284 13.9999 11.6001 13.648 11.6392C13.2936 11.6785 12.9748 11.4222 12.9372 11.0676C12.8996 10.7131 13.1575 10.3956 13.5122 10.3598Z" fill="black"/>
  <path d="M8.35597 10.3598C8.70822 10.3241 9.02304 10.5799 9.06039 10.9319C9.09774 11.284 8.84358 11.6001 8.4917 11.6392C8.13736 11.6785 7.81859 11.4222 7.78099 11.0676C7.74337 10.7131 8.00127 10.3956 8.35597 10.3598Z" fill="black"/>
  <path d="M13.5122 15.5156C13.8644 15.48 14.1793 15.7357 14.2166 16.0878C14.254 16.4398 13.9999 16.756 13.648 16.7951C13.2936 16.8344 12.9748 16.5781 12.9372 16.2235C12.8996 15.8689 13.1575 15.5515 13.5122 15.5156Z" fill="black"/>
  <path d="M10.9341 10.3598C11.2863 10.3241 11.6011 10.5799 11.6385 10.932C11.6759 11.284 11.4217 11.6001 11.0699 11.6392C10.7155 11.6785 10.3967 11.4222 10.3591 11.0676C10.3215 10.7131 10.5794 10.3956 10.9341 10.3598Z" fill="black"/>
  <path d="M8.35597 15.5156C8.70822 15.48 9.02303 15.7357 9.06039 16.0878C9.09774 16.4398 8.84358 16.756 8.4917 16.7951C8.13736 16.8344 7.81859 16.5781 7.78099 16.2235C7.74337 15.8689 8.00127 15.5515 8.35597 15.5156Z" fill="black"/>
  <path d="M10.9341 15.5156C11.2863 15.48 11.6011 15.7357 11.6385 16.0877C11.6759 16.4398 11.4217 16.756 11.0699 16.7951C10.7155 16.8344 10.3967 16.5781 10.3591 16.2235C10.3215 15.8689 10.5794 15.5515 10.9341 15.5156Z" fill="black"/>
  <path d="M10.8824 2.58255C11.9461 2.51833 12.8611 3.32745 12.9274 4.39109C12.9938 5.45472 12.1865 6.37129 11.123 6.43978C10.0565 6.50846 9.13676 5.69839 9.07022 4.63172C9.00368 3.56506 9.81561 2.64696 10.8824 2.58255ZM11.091 5.14555C11.4424 5.09421 11.685 4.76679 11.6319 4.4156C11.5788 4.06441 11.2501 3.82347 10.8992 3.87843C10.5508 3.93301 10.312 4.25877 10.3648 4.60739C10.4175 4.95603 10.742 5.19652 11.091 5.14555Z" fill="black"/>
  <path d="M0 13.1395C0.0381021 13.0765 0.0526403 13.0145 0.0854619 12.9541C0.308786 12.5437 0.818179 12.6316 1.21452 12.6316H2.3006L2.84719 12.6313C3.07934 12.6301 3.29594 12.6029 3.51026 12.7277C4.00588 13.0162 3.87782 13.7708 3.33046 13.9026C3.17797 13.9393 2.90295 13.9244 2.73596 13.9245L1.84199 13.9248H1.06154C0.65826 13.9249 0.248957 13.9772 0.0552016 13.5323C0.0395105 13.4962 0.0206634 13.4448 0 13.4125V13.1395Z" fill="black"/>
  <path d="M22.0004 13.3935C21.9698 13.4549 21.9488 13.5203 21.9153 13.5843C21.7077 13.9805 21.3027 13.9246 20.9212 13.9245L20.1422 13.9242L19.3458 13.9241C19.1333 13.9252 18.7886 13.9485 18.5954 13.8784C18.4346 13.8212 18.3042 13.701 18.2339 13.5455C18.163 13.3853 18.1591 13.2035 18.2229 13.0403C18.4088 12.5611 18.8727 12.6312 19.2921 12.6309L20.1008 12.6306L20.8891 12.631C21.0836 12.631 21.409 12.6128 21.5913 12.6768C21.8257 12.7593 21.9107 12.9458 22.0004 13.1593V13.3935Z" fill="black"/>
</svg>