<svg xmlns="http://www.w3.org/2000/svg" width="22" height="17" viewBox="0 0 22 17" fill="none">
  <path d="M0.75 3.05788C2.6772 2.13714 4.77008 1.61391 6.90385 1.51941C9.98077 1.51941 11.5192 3.82711 14.5962 3.82711C16.7298 3.73261 18.8228 3.20938 20.75 2.28864L17.6731 0.750183" stroke="black" stroke-width="1.5" stroke-linecap="round" stroke-linejoin="round"/>
  <path d="M0.75 9.21175C2.6772 8.29101 4.77008 7.76778 6.90385 7.67328C9.98077 7.67328 11.5192 9.98098 14.5962 9.98098C16.7298 9.88648 18.8228 9.36325 20.75 8.44251L17.6731 6.90405" stroke="black" stroke-width="1.5" stroke-linecap="round" stroke-linejoin="round"/>
  <path d="M0.75 15.3656C2.6772 14.4448 4.77008 13.9216 6.90385 13.8271C9.98077 13.8271 11.5192 16.1348 14.5962 16.1348C16.7298 16.0403 18.8228 15.5171 20.75 14.5963L17.6731 13.0579" stroke="black" stroke-width="1.5" stroke-linecap="round" stroke-linejoin="round"/>
</svg>