<svg xmlns="http://www.w3.org/2000/svg" width="16" height="24" viewBox="0 0 16 24" fill="none">
  <path d="M0 24V16.6083C0 14.9791 0.237037 13.4052 0.711111 11.8866C1.18519 10.368 1.95556 8.86459 3.02222 7.37617C2.13333 7.41642 1.40741 7.13982 0.844445 6.54649C0.281482 5.95316 0 5.25418 0 4.44965V3.00149C0 2.09638 0.340741 1.35218 1.02222 0.768885C1.7037 0.18559 2.45926 -0.0658246 3.28889 0.0146275L15.437 1.34212V6.13919L13.1556 6.35038C13.3333 7.33593 13.6889 8.22595 14.2222 9.02045C14.7556 9.81496 15.3481 10.4636 16 10.9664L15.1111 12.4749C14.2025 11.952 13.4173 11.1223 12.7556 9.9859C12.0938 8.84951 11.6345 7.69797 11.3778 6.5314L9.0963 6.80294C9.25434 8.00975 9.56047 9.15121 10.0148 10.2273C10.4692 11.3033 11.0519 12.4146 11.763 13.5611C12.1383 14.1444 12.4197 14.8131 12.6074 15.5674C12.7951 16.3217 12.8889 17.0608 12.8889 17.7849V24H0ZM1.80741 3.00149V4.44965C1.80741 4.85194 1.96047 5.15866 2.26667 5.36985C2.57286 5.58104 2.89381 5.65647 3.22963 5.59613L13.6593 4.47982V2.94115L3.22963 1.82484C2.89381 1.78462 2.57286 1.8701 2.26667 2.08129C1.96047 2.29248 1.80741 2.59921 1.80741 3.00149ZM1.77778 22.1898H11.1111V17.7849C11.1111 17.2419 11.042 16.6938 10.9037 16.1406C10.7655 15.5875 10.558 15.0696 10.2815 14.5869C9.47159 13.199 8.84444 11.9721 8.4 10.9061C7.95555 9.84006 7.59508 8.53272 7.31852 6.98396L5.3037 7.19515L4.38518 8.52264C3.4963 9.78979 2.83953 11.077 2.41482 12.3844C1.9901 13.6918 1.77778 15.0998 1.77778 16.6083V22.1898Z" fill="black"/>
</svg>