<svg xmlns="http://www.w3.org/2000/svg" width="14" height="27" viewBox="0 0 14 27" fill="none">
  <path d="M3.05503 0H3.63958C3.77742 0.0599428 3.9864 0.0842745 4.14549 0.142715C4.74409 0.364012 5.22546 0.821512 5.47691 1.40808C5.56525 1.61799 5.62231 1.83976 5.64626 2.06626C5.6816 2.38456 5.65968 2.80704 5.66416 3.13561C5.67405 3.85807 5.65022 4.59958 5.66695 5.32056C6.28958 5.26567 6.89966 5.26823 7.52428 5.27576C7.76367 5.27864 8.01063 5.29794 8.24835 5.32618C9.4836 5.47798 10.6479 5.98631 11.599 6.78905C12.9055 7.88525 13.7222 9.45638 13.8685 11.1556C13.9029 11.5531 13.8954 11.9389 13.8953 12.3374L13.8949 13.8854L13.8947 18.8564L13.8948 22.7677L13.8954 23.9735C13.8954 24.207 13.9044 24.5096 13.8792 24.7358C13.8423 25.0887 13.6996 25.4223 13.4697 25.6927C13.2682 25.9305 13.0026 26.1267 12.7049 26.2337C12.6178 26.265 12.4328 26.2985 12.3606 26.3392H1.55294C1.44659 26.2864 1.21389 26.2533 1.0264 26.1621C0.590015 25.9505 0.255926 25.5737 0.0980714 25.1152C0.0434253 24.9512 0.013215 24.7802 0.00840504 24.6073C-0.00351704 24.2868 0.00471397 23.914 0.004804 23.5894L0.00484266 21.791L0.00494549 16.2898L0.00458538 12.9934C0.00453394 12.3696 -0.0221653 11.5139 0.0538685 10.9122C0.124308 10.3397 0.271848 9.77933 0.492478 9.24634C0.623003 8.92351 0.795815 8.61906 0.969515 8.31848C1.06651 8.15065 1.03414 7.81834 1.03414 7.61515L1.03408 6.62838L1.03351 3.56834L1.0334 2.72041C1.03336 2.17814 1.02613 1.78853 1.27586 1.28597C1.53852 0.751887 1.9978 0.340261 2.55735 0.137433C2.71393 0.081089 2.88813 0.0563621 3.0433 0.00405794L3.05503 0ZM1.54958 17.4269C1.73558 17.4147 2.00652 17.4266 2.20258 17.4267L3.52042 17.4269L7.61171 17.4267L12.3472 17.4273C12.3693 16.2821 12.3515 15.0805 12.3513 13.9313L12.3515 12.4426C12.3517 12.039 12.363 11.6262 12.3233 11.2255C12.215 10.1329 11.7412 9.1087 10.9788 8.3185C10.115 7.42235 8.88773 6.85561 7.63843 6.83292C7.21578 6.82525 6.71776 6.8257 6.29466 6.83522C5.01879 6.86303 3.80577 7.39467 2.92062 8.314C2.15021 9.10995 1.67414 10.1447 1.57097 11.2477C1.53632 11.6167 1.5481 12.041 1.5483 12.416L1.54836 13.8492C1.54837 15.0275 1.53226 16.2503 1.54958 17.4269ZM6.48948 24.7928C7.38957 24.7993 8.36495 24.8116 9.26202 24.7946C9.26439 24.4887 9.265 24.1829 9.26387 23.8771C9.26333 23.6735 9.24875 23.2904 9.29632 23.1052C9.33206 22.9641 9.40664 22.8357 9.51161 22.7349C9.81517 22.4449 10.3306 22.4804 10.6086 22.7898C10.6951 22.8881 10.755 23.0069 10.7826 23.135C10.8214 23.3093 10.8098 23.6397 10.8096 23.8335L10.808 24.7933C11.2301 24.7957 11.6522 24.7961 12.0743 24.7942C12.2595 24.7689 12.3385 24.6941 12.348 24.4984C12.3579 24.2936 12.3525 24.0856 12.3521 23.8802L12.3507 22.7665L12.3525 18.9811C11.988 18.978 11.6237 18.9772 11.2592 18.9789C11.137 18.9792 10.8133 18.989 10.7105 18.9729C10.706 19.2577 10.7322 20.2261 10.6718 20.437C10.6361 20.5645 10.5669 20.6801 10.4712 20.7717C10.3243 20.9149 10.126 20.9931 9.92089 20.9886C9.71601 20.9835 9.52145 20.8981 9.37886 20.7508C9.29779 20.6666 9.22987 20.5565 9.19923 20.4432C9.12724 20.1771 9.16502 19.308 9.16597 18.9812L3.66721 18.9776L2.19076 18.9785C2.06163 18.9786 1.65219 18.9888 1.55563 18.9724C1.53312 19.1529 1.54916 19.6494 1.54923 19.8595L1.5482 21.7067L4.48515 21.7091L5.28388 21.7077C5.45312 21.7073 5.68783 21.6992 5.84977 21.7265C6.0114 21.7522 6.16042 21.8294 6.27467 21.9465C6.51915 22.198 6.4974 22.4945 6.49349 22.8207C6.48582 23.461 6.50531 24.1063 6.49067 24.7461L6.48948 24.7928ZM1.55073 23.2502C1.54763 23.5315 1.5463 23.8129 1.54675 24.0943C1.54664 24.2942 1.51783 24.5479 1.61517 24.7214C1.68286 24.7578 1.74369 24.7897 1.82258 24.7919C2.06175 24.7983 2.30748 24.7956 2.5468 24.7957L3.9845 24.7959H4.67331C4.72354 24.796 4.91053 24.805 4.94458 24.7813C4.95355 24.2862 4.93402 23.7481 4.95366 23.2619C4.16097 23.2444 3.33361 23.2565 2.53762 23.2564C2.34239 23.2562 2.14718 23.2569 1.95197 23.2589C1.83026 23.2599 1.66741 23.2676 1.55073 23.2502ZM3.24614 1.56024C2.88897 1.60687 2.60743 1.88049 2.58671 2.24697C2.56837 2.57116 2.57671 2.90202 2.57668 3.22747L2.577 5.10409L2.57763 6.10189C2.5777 6.16851 2.57111 6.48963 2.59296 6.53344C2.61348 6.53626 3.07208 6.22743 3.13709 6.18915C3.4994 5.97144 3.72447 5.87199 4.118 5.7045C4.13085 4.68275 4.11423 3.65823 4.12074 2.63628C4.12269 2.32815 4.1368 2.00965 3.89706 1.77913C3.71708 1.60067 3.49534 1.52689 3.24614 1.56024Z" fill="black"/>
</svg>