<svg xmlns="http://www.w3.org/2000/svg" width="23" height="23" viewBox="0 0 23 23" fill="none">
  <path d="M11.0802 0H11.9083C12.0259 0.0438616 12.1844 0.0415407 12.3089 0.0662052C12.5047 0.104976 12.7008 0.149585 12.8915 0.209004C14.1277 0.594739 15.1526 1.46925 15.728 2.62952C15.9337 3.04428 16.109 3.57619 16.1661 4.03795C16.6885 4.05451 17.2713 4.04276 17.7979 4.04258L20.6705 4.04289L21.7851 4.0419C22.1276 4.04155 22.5575 3.98156 22.8101 4.25102C22.9224 4.37079 22.9333 4.4598 23 4.59434V22.449C22.8735 22.7502 22.8259 22.8492 22.5011 22.9796L22.4849 22.9861C22.4678 22.9929 22.4745 22.9897 22.4586 23H0.539775C0.30663 22.8962 0.181455 22.8516 0.064433 22.6087C0.0465757 22.5716 0.0281182 22.5209 0.0100786 22.4872L0 22.4687V4.57395C0.0207254 4.5429 0.0502917 4.47169 0.066479 4.43396C0.275305 3.94717 0.828209 4.04177 1.27404 4.04195L2.54096 4.04276L6.82772 4.04383C6.8908 3.556 7.08145 2.99767 7.30532 2.5618C7.88339 1.43202 8.89344 0.58375 10.1061 0.209632C10.2988 0.150416 10.4887 0.105372 10.6865 0.067181C10.8025 0.0447899 10.9715 0.039543 11.0802 0ZM1.34803 21.6501L21.6504 21.6513L21.6528 17.5701L21.6526 9.48054V6.80626C21.6526 6.35361 21.6418 5.84762 21.6549 5.39796C20.3853 5.38261 19.0949 5.39401 17.8239 5.39421L16.7258 5.39498C16.5921 5.39523 16.2938 5.40384 16.1709 5.39027C16.1208 5.66637 16.0808 5.87396 15.9957 6.14174C15.6773 7.13553 15.0403 7.99669 14.1833 8.59199C13.1565 9.31042 11.8842 9.58655 10.652 9.35848C9.41876 9.12935 8.32634 8.42139 7.61348 7.38929C7.24225 6.85146 6.8977 6.05544 6.83489 5.39978C6.38754 5.38019 5.84315 5.39408 5.38934 5.39412L2.76183 5.39419L1.84195 5.39541C1.72209 5.39581 1.45303 5.40491 1.35022 5.38856C1.34044 5.99783 1.348 6.62606 1.34821 7.23652L1.34841 10.5204L1.34803 21.6501ZM11.4903 6.74349C10.7636 6.76917 10.2448 7.04959 9.81779 7.63482C10.3867 7.9329 10.8713 8.0877 11.5235 8.08367C12.0914 8.06047 12.6925 7.94097 13.1784 7.62988C13.1427 7.58401 13.1067 7.53844 13.0708 7.49283C12.7613 7.10079 12.2774 6.8243 11.781 6.76337C11.6846 6.75085 11.5876 6.74421 11.4903 6.74349ZM11.448 1.35289C10.5139 1.37577 9.69094 1.73313 9.04377 2.41297C8.43506 3.05876 8.10771 3.91987 8.13373 4.80696C8.15061 5.44667 8.39171 6.24018 8.8133 6.73066C9.1976 6.21234 9.72551 5.81814 10.3316 5.59691C10.8486 5.40519 10.8262 5.63009 10.8255 5.05463L10.8263 4.03775C10.826 3.5299 10.7068 2.83547 11.3861 2.70739C11.4368 2.69783 11.5188 2.69572 11.5701 2.70073C12.2787 2.82641 12.17 3.41897 12.1753 3.96591C12.18 4.4591 12.1659 4.95929 12.1756 5.45161C12.8654 5.64706 13.3084 5.83049 13.8494 6.34812C13.9754 6.46875 14.0901 6.62091 14.198 6.72669C14.7416 5.99893 14.9676 5.08226 14.8248 4.18524C14.6822 3.30107 14.194 2.50986 13.4676 1.98597C12.8647 1.54983 12.1863 1.34843 11.448 1.35289Z" fill="black"/>
  <path d="M17.6172 6.74289C17.6605 6.7407 17.704 6.73916 17.7474 6.73825C18.1471 6.73239 18.554 6.73898 18.9559 6.73757C19.2138 6.75686 19.5388 6.70103 19.7869 6.75994C20.1761 6.85233 20.302 7.17019 20.3047 7.51549L20.3048 15.6701L20.3051 18.368L20.3056 19.2002C20.3057 19.3619 20.3099 19.5285 20.298 19.6892C20.2799 19.9801 20.0325 20.254 19.7428 20.2941C19.574 20.3176 19.3609 20.3088 19.1867 20.3088L18.2487 20.308L14.8743 20.3084L13.4993 20.3089C13.2614 20.3091 13.0233 20.3158 12.7862 20.2995C12.4966 20.2795 12.231 20.0484 12.1871 19.759C12.1661 19.6204 12.1729 19.4577 12.1731 19.3172L12.1741 18.669L12.174 16.4305L12.1736 13.528L12.1734 12.7129C12.1733 12.4752 12.1657 12.2275 12.2032 11.9932C12.2644 11.6242 12.4268 11.2794 12.6722 10.9972C13.0272 10.5946 13.2905 10.5303 13.7528 10.3433C13.9529 10.2627 14.1484 10.1713 14.3387 10.0696C14.8314 9.80487 15.2864 9.47516 15.6914 9.08936C16.1327 8.66663 16.5079 8.17994 16.8045 7.64564C16.885 7.49903 16.9643 7.3381 17.0362 7.18677C17.1695 6.90606 17.3075 6.78785 17.6172 6.74289ZM13.5214 18.9548L14.3914 18.9566L18.9547 18.956L18.957 11.3815L18.9568 9.24879C18.9568 8.87367 18.9486 8.46483 18.9592 8.09327C18.72 8.09055 18.3338 8.10385 18.1126 8.08946C18.0713 8.12901 17.853 8.52661 17.8016 8.61062C17.7082 8.76265 17.6203 8.89056 17.5134 9.0395C16.7221 10.14 15.6452 11.0035 14.3991 11.5367C13.9082 11.7476 13.5239 11.7631 13.5219 12.4095C13.5198 13.0544 13.5215 13.7023 13.5217 14.3468L13.5214 18.9548Z" fill="black"/>
  <path d="M3.31146 6.74223C3.97548 6.7144 4.67792 6.7468 5.34473 6.74296C5.86292 6.73997 5.98417 7.27085 6.19481 7.65029C6.50504 8.20957 6.90168 8.71632 7.37004 9.15183C7.86484 9.61344 8.43331 9.98909 9.05197 10.2633C9.40023 10.4171 9.70369 10.4869 10.0176 10.7174C10.4402 11.0313 10.7212 11.4999 10.7992 12.0205C10.8432 12.3066 10.826 12.9141 10.826 13.2283L10.826 15.3879L10.8264 18.2409L10.8263 19.1439C10.8262 19.3209 10.8315 19.499 10.8191 19.6756C10.795 20.02 10.5436 20.2574 10.2104 20.3021C9.82669 20.3252 9.26736 20.3083 8.86897 20.3083H6.33648H4.34077C4.07598 20.3084 3.55631 20.3235 3.30954 20.301C3.19016 20.2905 3.07565 20.2488 2.97747 20.1801C2.83383 20.0798 2.73624 19.9264 2.70642 19.7538C2.68863 19.6497 2.69415 19.4037 2.69423 19.2903L2.69499 18.5041V15.591L2.69481 10.1349L2.69417 8.36141C2.69409 8.04742 2.69162 7.73262 2.69725 7.41887C2.69983 7.24528 2.75147 7.0921 2.86667 6.96126C2.99495 6.81557 3.12825 6.76907 3.31146 6.74223ZM4.04241 18.9547L7.5919 18.9567L8.83716 18.9566C9.03684 18.9566 9.28192 18.964 9.4758 18.955L9.47774 14.4207L9.47847 13.0248C9.47856 12.7694 9.48741 12.5138 9.46691 12.262C9.4254 11.752 8.97214 11.7018 8.59126 11.536C8.4491 11.4742 8.30181 11.403 8.16291 11.3331C7.0422 10.7668 6.08313 9.92585 5.37511 8.8888C5.26317 8.72825 5.15931 8.56221 5.06391 8.39132C5.02634 8.32491 4.93595 8.14754 4.90061 8.09629C4.64007 8.07934 4.26922 8.1114 4.04461 8.08371C4.02828 9.14536 4.04231 10.2425 4.04247 11.3063L4.04241 18.9547Z" fill="black"/>
</svg>