<svg xmlns="http://www.w3.org/2000/svg" width="22" height="29" viewBox="0 0 22 29" fill="none">
  <path d="M5.5795 17.3556L1 27.1688" stroke="black" stroke-width="2" stroke-linecap="round" stroke-linejoin="round"/>
  <path d="M4.92188 6.23387C4.92188 6.23387 6.23037 4.84523 6.23037 3.61699C6.23037 1.87241 4.92188 1.00012 4.92188 1.00012" stroke="black" stroke-width="2" stroke-linecap="round" stroke-linejoin="round"/>
  <path d="M10.1582 6.23387C10.1582 6.23387 11.4667 4.84523 11.4667 3.61699C11.4667 1.87241 10.1582 1.00012 10.1582 1.00012" stroke="black" stroke-width="2" stroke-linecap="round" stroke-linejoin="round"/>
  <path d="M15.3887 6.23387C15.3887 6.23387 16.6972 4.84523 16.6972 3.61699C16.6972 1.87241 15.3887 1.00012 15.3887 1.00012" stroke="black" stroke-width="2" stroke-linecap="round" stroke-linejoin="round"/>
  <path d="M16.0455 21.2808H4.26953" stroke="black" stroke-width="2" stroke-linejoin="round"/>
  <path d="M14.7363 17.3556L17.4841 23.2436" stroke="black" stroke-width="2" stroke-linecap="round" stroke-linejoin="round"/>
  <path d="M18.6599 27.1689C19.7439 27.1689 20.6226 26.2902 20.6226 25.2063C20.6226 24.1224 19.7439 23.2437 18.6599 23.2437C17.5759 23.2437 16.6973 24.1224 16.6973 25.2063C16.6973 26.2902 17.576 27.1689 18.6599 27.1689Z" stroke="black" stroke-width="2" stroke-linecap="round" stroke-linejoin="round"/>
  <path d="M10.1578 18.0099C14.952 18.0099 18.8857 14.3267 19.2838 9.63557C19.3205 9.20355 18.9655 8.85083 18.5318 8.85083H1.78376C1.35018 8.85083 0.995192 9.20355 1.03191 9.63557C1.42996 14.3267 5.3637 18.0099 10.1578 18.0099Z" stroke="black" stroke-width="2"/>
</svg>