<svg xmlns="http://www.w3.org/2000/svg" width="19" height="25" viewBox="0 0 19 25" fill="none">
  <path d="M5.7 25C5.19333 25 4.75 24.8125 4.37 24.4375C3.99 24.0625 3.8 23.625 3.8 23.125V21.375C3.8 20.4375 4.0375 19.5833 4.5125 18.8125C4.9875 18.0417 5.67891 17.3646 6.58667 16.7812L5.54167 10.8438H1.9C1.39333 10.8438 0.95 10.6563 0.57 10.2812C0.19 9.90625 0 9.46875 0 8.96875V3.125C0 2.60417 0.184724 2.16146 0.554167 1.79688C0.923609 1.43229 1.37222 1.25 1.9 1.25H8.61333V0.9375C8.61333 0.666669 8.70308 0.442706 8.8825 0.265625C9.06192 0.0885439 9.28891 0 9.56333 0H12.92C13.1944 0 13.4214 0.0885439 13.6008 0.265625C13.7803 0.442706 13.87 0.666669 13.87 0.9375V1.25H17.8283C18.1239 1.25 18.3667 1.35938 18.5567 1.57812C18.7467 1.79688 18.8206 2.05208 18.7783 2.34375L16.2133 16.7812C17.1211 17.3646 17.8125 18.0417 18.2875 18.8125C18.7625 19.5833 19 20.4375 19 21.375V23.125C19 23.625 18.81 24.0625 18.43 24.4375C18.05 24.8125 17.6067 25 17.1 25H5.7ZM5.19333 8.96875L4.18 3.125H1.9V8.96875H5.19333ZM11.4 21.25C11.7589 21.25 12.0597 21.1302 12.3025 20.8906C12.5453 20.6511 12.6667 20.3542 12.6667 20C12.6667 19.6458 12.5453 19.3489 12.3025 19.1094C12.0597 18.8698 11.7589 18.75 11.4 18.75C11.0411 18.75 10.7403 18.8698 10.4975 19.1094C10.2547 19.3489 10.1333 19.6458 10.1333 20C10.1333 20.3542 10.2547 20.6511 10.4975 20.8906C10.7403 21.1302 11.0411 21.25 11.4 21.25ZM8.29667 15.625H14.5033L16.72 3.125H6.08L8.29667 15.625ZM5.7 23.125H17.1V21.375C17.1 20.25 16.6778 19.3229 15.8333 18.5938C14.9889 17.8646 13.9439 17.5 12.6983 17.5H10.1017C8.85609 17.5 7.81109 17.8646 6.96667 18.5938C6.12224 19.3229 5.7 20.25 5.7 21.375V23.125Z" fill="black"/>
</svg>