<svg xmlns="http://www.w3.org/2000/svg" width="19" height="25" viewBox="0 0 19 25" fill="none">
  <path d="M0 25V0H19V1.875H15.8234V5H5.01719V1.875H1.78125V23.125H7.3625C6.6104 22.5833 6.03149 21.9271 5.62578 21.1562C5.22007 20.3854 5.01719 19.4479 5.01719 18.3438V12.3125H15.8234V18.3438C15.8234 19.4479 15.6156 20.3854 15.2 21.1562C14.7844 21.9271 14.2005 22.5833 13.4484 23.125H19V25H0ZM10.4055 22.3125C11.4248 22.3125 12.2857 21.9267 12.9883 21.155C13.6909 20.3833 14.0422 19.4462 14.0422 18.3438V14.1875H6.79844V18.3438C6.79844 19.4462 7.14477 20.3833 7.8375 21.155C8.53023 21.9267 9.38618 22.3125 10.4055 22.3125ZM10.3906 10C10.7188 10 10.9938 9.88325 11.2156 9.64969C11.4375 9.41613 11.5484 9.12669 11.5484 8.78125C11.5484 8.43581 11.4375 8.14637 11.2156 7.91281C10.9938 7.67925 10.7188 7.5625 10.3906 7.5625C10.0625 7.5625 9.78749 7.67925 9.56561 7.91281C9.34373 8.14637 9.23281 8.43581 9.23281 8.78125C9.23281 9.12669 9.34373 9.41613 9.56561 9.64969C9.78749 9.88325 10.0625 10 10.3906 10Z" fill="black"/>
</svg>