<svg xmlns="http://www.w3.org/2000/svg" width="19" height="29" viewBox="0 0 19 29" fill="none">
  <path d="M17.1772 0.0501709C17.863 0.0501709 18.4126 0.66814 18.4126 1.41638V25.4398C18.4126 25.8239 18.2684 26.1714 18.0356 26.4193C17.8646 26.6013 17.673 26.7863 17.5229 26.9886C17.3735 27.1902 17.271 27.4022 17.271 27.6332C17.271 27.7701 17.2164 27.9015 17.1196 27.9984C17.0228 28.0952 16.8913 28.1497 16.7544 28.1498H14.8853C14.7483 28.1497 14.6169 28.0952 14.52 27.9984C14.4232 27.9015 14.3687 27.7701 14.3687 27.6332C14.3686 27.1763 13.9984 26.806 13.5415 26.806H4.91748C4.4606 26.806 4.08943 27.1763 4.08936 27.6332C4.08936 27.7702 4.03488 27.9015 3.93799 27.9984C3.8411 28.0953 3.70975 28.1498 3.57275 28.1498H1.70361C1.56674 28.1497 1.43517 28.0952 1.33838 27.9984C1.24166 27.9015 1.18701 27.7701 1.18701 27.6332V26.7963C0.548315 26.7416 0.050293 26.1529 0.050293 25.4398V1.41638C0.050293 0.668499 0.596948 0.0504535 1.28076 0.0501709H17.1772ZM2.37646 26.806C2.29068 26.806 2.22022 26.8755 2.22021 26.9613C2.22021 27.0471 2.29068 27.1166 2.37646 27.1166H2.90088C2.98667 27.1166 3.05615 27.0471 3.05615 26.9613C3.05615 26.8755 2.98667 26.806 2.90088 26.806H2.37646ZM15.5571 26.806C15.4715 26.8062 15.4019 26.8756 15.4019 26.9613C15.4019 27.047 15.4715 27.1164 15.5571 27.1166H16.0825C16.1681 27.1163 16.2378 27.0469 16.2378 26.9613C16.2378 26.8757 16.1681 26.8063 16.0825 26.806H15.5571ZM2.03369 17.0883C1.50906 17.0883 1.08356 17.5138 1.0835 18.0385V25.4398C1.0835 25.5395 1.11353 25.6254 1.15479 25.6849C1.19705 25.7459 1.24525 25.7726 1.28076 25.7728H17.1772C17.2142 25.7728 17.264 25.746 17.3071 25.6849C17.3491 25.6255 17.3794 25.5396 17.3794 25.4398V18.0385C17.3793 17.5138 16.9538 17.0883 16.4292 17.0883H2.03369ZM1.28076 1.08337C1.24522 1.08361 1.19707 1.1102 1.15479 1.17126C1.11354 1.23083 1.0835 1.31667 1.0835 1.41638V15.1049C1.0835 15.6295 1.50902 16.0551 2.03369 16.0551H16.4292C16.9539 16.0551 17.3794 15.6295 17.3794 15.1049V1.41638C17.3794 1.31685 17.3491 1.23082 17.3071 1.17126C17.264 1.11007 17.2141 1.08337 17.1772 1.08337H1.28076Z" fill="black" stroke="black" stroke-width="0.1"/>
  <mask id="path-2-outside-1_641_3891" maskUnits="userSpaceOnUse" x="1.1709" y="3.82507" width="12" height="17" fill="black">
    <rect fill="white" x="1.1709" y="3.82507" width="12" height="17"/>
    <path d="M6.29017 8.82527C6.28986 8.82527 6.28955 8.82523 6.28925 8.82515C6.23015 8.8095 6.16856 8.80561 6.10797 8.81371C6.04722 8.82182 5.98866 8.84182 5.93564 8.87257C5.88262 8.90331 5.83618 8.9442 5.79896 8.9929C5.76174 9.04159 5.73448 9.09714 5.71873 9.15637C5.70298 9.2156 5.69905 9.27735 5.70717 9.3381C5.71528 9.39885 5.73529 9.45741 5.76603 9.51043C5.79678 9.56345 5.83766 9.60989 5.88636 9.64711C5.93505 9.68432 5.9906 9.71159 6.04983 9.72734C6.37966 9.81469 6.57609 10.1531 6.4885 10.4829C6.47278 10.5421 6.46889 10.6039 6.47704 10.6647C6.4852 10.7254 6.50524 10.784 6.53603 10.837C6.56682 10.89 6.60775 10.9365 6.65649 10.9737C6.70522 11.0109 6.76081 11.0381 6.82007 11.0538C6.87933 11.0696 6.9411 11.0734 7.00187 11.0653C7.06264 11.0571 7.1212 11.0371 7.17422 11.0063C7.22724 10.9755 7.27367 10.9346 7.31088 10.8858C7.34808 10.8371 7.37531 10.7815 7.39103 10.7223L7.54699 10.1336C7.59294 9.96014 7.70598 9.81206 7.8612 9.722L8.02988 9.62413C8.17421 9.54038 8.35341 9.56069 8.49935 9.64161C8.64969 9.72496 8.76303 9.87258 8.76303 10.0445V10.2414C8.76303 10.4187 8.69259 10.5888 8.56719 10.7142L8.13257 11.1488C8.08924 11.1921 8.05487 11.2436 8.03142 11.3002C8.00797 11.3568 7.9959 11.4175 7.9959 11.4787C7.9959 11.54 8.00797 11.6007 8.03142 11.6573C8.05487 11.7139 8.08924 11.7653 8.13257 11.8087C8.17589 11.852 8.22733 11.8864 8.28394 11.9098C8.34055 11.9333 8.40123 11.9453 8.4625 11.9453C8.52377 11.9453 8.58445 11.9333 8.64106 11.9098C8.69767 11.8864 8.74911 11.852 8.79243 11.8087C9.03393 11.5672 9.42547 11.5672 9.66697 11.8087C9.71021 11.8522 9.76161 11.8867 9.81823 11.9102C9.87486 11.9338 9.93558 11.9459 9.9969 11.9459C10.0582 11.9459 10.1189 11.9338 10.1756 11.9102C10.2322 11.8867 10.2836 11.8522 10.3268 11.8087C10.3702 11.7654 10.4046 11.7139 10.4281 11.6573C10.4516 11.6007 10.4637 11.54 10.4637 11.4787C10.4637 11.4174 10.4516 11.3568 10.4281 11.3001C10.4046 11.2435 10.3702 11.1921 10.3268 11.1488L9.89196 10.7139C9.76672 10.5887 9.69637 10.4188 9.69637 10.2417V10.0453C9.69637 9.87296 9.81033 9.72484 9.96095 9.64115C10.1067 9.56018 10.2855 9.54027 10.4296 9.62393L10.5983 9.72181C10.7538 9.81199 10.867 9.96028 10.913 10.134L11.0688 10.7223C11.0846 10.7815 11.1118 10.8371 11.149 10.8858C11.1862 10.9346 11.2326 10.9755 11.2856 11.0063C11.3387 11.0371 11.3972 11.0571 11.458 11.0653C11.5188 11.0734 11.5805 11.0696 11.6398 11.0538C11.6991 11.0381 11.7546 11.0109 11.8034 10.9737C11.8521 10.9365 11.893 10.89 11.9238 10.837C11.9546 10.784 11.9747 10.7254 11.9828 10.6647C11.991 10.6039 11.9871 10.5421 11.9714 10.4829C11.8838 10.1531 12.0802 9.81469 12.41 9.72734C12.4693 9.71159 12.5248 9.68432 12.5735 9.64711C12.6222 9.60989 12.6631 9.56345 12.6938 9.51043C12.7246 9.45741 12.7446 9.39885 12.7527 9.3381C12.7608 9.27735 12.7569 9.2156 12.7411 9.15637C12.7254 9.09714 12.6981 9.04159 12.6609 8.9929C12.6237 8.9442 12.5772 8.90331 12.5242 8.87257C12.4712 8.84182 12.4126 8.82182 12.3519 8.81371C12.2912 8.80559 12.2294 8.80952 12.1702 8.82527L11.552 8.98925C11.3947 9.03097 11.2273 9.00854 11.0865 8.92689L11.0044 8.87922C10.8172 8.77063 10.7356 8.55122 10.7356 8.3348C10.7356 8.17436 10.7963 8.01607 10.9351 7.93553L11.0851 7.84844C11.2292 7.76484 11.4005 7.74185 11.5615 7.78454L12.1706 7.94607C12.288 7.97115 12.4104 7.95011 12.5127 7.88733C12.6149 7.82455 12.6891 7.72484 12.7198 7.60886C12.7505 7.49288 12.7355 7.36952 12.6777 7.26436C12.6199 7.1592 12.5239 7.0803 12.4096 7.044C12.08 6.95665 11.8838 6.61801 11.9714 6.28847C11.9871 6.22921 11.991 6.16743 11.9828 6.10667C11.9747 6.0459 11.9546 5.98734 11.9238 5.93432C11.893 5.8813 11.8521 5.83486 11.8034 5.79766C11.7546 5.76046 11.6991 5.73322 11.6398 5.7175C11.5805 5.70178 11.5188 5.69789 11.458 5.70605C11.3972 5.7142 11.3387 5.73425 11.2856 5.76504C11.2326 5.79582 11.1862 5.83675 11.149 5.88549C11.1118 5.93422 11.0846 5.98981 11.0688 6.04907L10.9004 6.6848C10.8618 6.83023 10.7671 6.95437 10.6369 7.02989L10.5638 7.07233C10.3889 7.17386 10.1711 7.14093 9.99704 7.03784C9.82769 6.93751 9.69683 6.76887 9.69683 6.57203V6.48813C9.69683 6.33698 9.75688 6.19203 9.86375 6.08515L10.3273 5.6216C10.4148 5.5341 10.464 5.41542 10.464 5.29167C10.464 5.16792 10.4148 5.04924 10.3273 4.96174C10.2398 4.87423 10.1211 4.82507 9.99737 4.82507C9.87362 4.82507 9.75494 4.87423 9.66743 4.96174C9.42594 5.20323 9.0344 5.20323 8.7929 4.96174C8.74957 4.91841 8.69814 4.88404 8.64153 4.86059C8.58492 4.83714 8.52424 4.82507 8.46297 4.82507C8.40169 4.82507 8.34102 4.83714 8.28441 4.86059C8.2278 4.88404 8.17636 4.91841 8.13303 4.96174C8.08971 5.00506 8.05534 5.0565 8.03189 5.11311C8.00844 5.16972 7.99637 5.2304 7.99637 5.29167C7.99637 5.35294 8.00844 5.41362 8.03189 5.47023C8.05534 5.52684 8.08971 5.57828 8.13303 5.6216L8.59623 6.0848C8.70333 6.1919 8.7635 6.33716 8.7635 6.48862V6.57316C8.7635 6.76969 8.63309 6.93816 8.46407 7.03843C8.29019 7.14158 8.07247 7.1744 7.89761 7.07293L7.82384 7.03012C7.69344 6.95445 7.59847 6.83005 7.55984 6.68432L7.3915 6.04907C7.35975 5.92939 7.28176 5.82722 7.17469 5.76504C7.06761 5.70285 6.94022 5.68576 6.82053 5.7175C6.70085 5.74925 6.59868 5.82724 6.5365 5.93432C6.47432 6.04139 6.45722 6.16879 6.48897 6.28847C6.5765 6.61801 6.38035 6.95665 6.05077 7.044C5.99054 7.05877 5.93386 7.08539 5.88404 7.12231C5.83422 7.15923 5.79226 7.20571 5.7606 7.25903C5.72895 7.31236 5.70824 7.37145 5.69969 7.43287C5.69113 7.49428 5.69491 7.55679 5.71078 7.61673C5.72666 7.67667 5.75432 7.73285 5.79216 7.78198C5.82999 7.83111 5.87724 7.87221 5.93114 7.90287C5.98504 7.93353 6.04451 7.95314 6.10607 7.96056C6.16764 7.96798 6.23006 7.96305 6.2897 7.94607L6.89795 7.78477C7.05949 7.74193 7.23143 7.765 7.37596 7.84889L7.52528 7.93557C7.66415 8.01617 7.72517 8.17424 7.72517 8.3348C7.72517 8.55118 7.6436 8.77066 7.45643 8.87922L7.37412 8.92697C7.23345 9.00857 7.06614 9.03098 6.90895 8.98929L6.29108 8.82539C6.29078 8.82531 6.29048 8.82527 6.29017 8.82527ZM9.73836 8.06227C9.73815 8.06227 9.73801 8.06249 9.73811 8.06268C9.78044 8.14565 9.80277 8.23976 9.80277 8.33434C9.80277 8.4454 9.77197 8.55134 9.7127 8.6428C9.4957 8.97834 8.96603 8.97974 8.74763 8.6414C8.6888 8.55002 8.65783 8.44349 8.6585 8.3348C8.6585 8.2396 8.6809 8.14534 8.72057 8.06834C8.76907 7.97557 8.84191 7.89777 8.93129 7.84327C9.02067 7.78878 9.1232 7.75966 9.22788 7.75904C9.33255 7.75841 9.43542 7.78631 9.52544 7.83973C9.61533 7.89308 9.68901 7.96986 9.73861 8.06185C9.73871 8.06204 9.73857 8.06227 9.73836 8.06227ZM2.63757 18.3751C2.5138 18.3751 2.3951 18.4243 2.30758 18.5118C2.22007 18.5993 2.1709 18.718 2.1709 18.8418V19.8988C2.1709 20.0226 2.22007 20.1413 2.30758 20.2288C2.3951 20.3163 2.5138 20.3655 2.63757 20.3655C2.76133 20.3655 2.88003 20.3163 2.96755 20.2288C3.05507 20.1413 3.10423 20.0226 3.10423 19.8988V18.8418C3.10423 18.718 3.05507 18.5993 2.96755 18.5118C2.88003 18.4243 2.76133 18.3751 2.63757 18.3751ZM2.63757 14.7683C2.76133 14.7683 2.88003 14.7191 2.96755 14.6316C3.05507 14.5441 3.10423 14.4254 3.10423 14.3016V13.2441C3.10423 13.1204 3.05507 13.0017 2.96755 12.9142C2.88003 12.8266 2.76133 12.7775 2.63757 12.7775C2.5138 12.7775 2.3951 12.8266 2.30758 12.9142C2.22007 13.0017 2.1709 13.1204 2.1709 13.2441V14.3016C2.1709 14.4254 2.22007 14.5441 2.30758 14.6316C2.3951 14.7191 2.5138 14.7683 2.63757 14.7683Z"/>
  </mask>
  <path d="M6.29017 8.82527C6.28986 8.82527 6.28955 8.82523 6.28925 8.82515C6.23015 8.8095 6.16856 8.80561 6.10797 8.81371C6.04722 8.82182 5.98866 8.84182 5.93564 8.87257C5.88262 8.90331 5.83618 8.9442 5.79896 8.9929C5.76174 9.04159 5.73448 9.09714 5.71873 9.15637C5.70298 9.2156 5.69905 9.27735 5.70717 9.3381C5.71528 9.39885 5.73529 9.45741 5.76603 9.51043C5.79678 9.56345 5.83766 9.60989 5.88636 9.64711C5.93505 9.68432 5.9906 9.71159 6.04983 9.72734C6.37966 9.81469 6.57609 10.1531 6.4885 10.4829C6.47278 10.5421 6.46889 10.6039 6.47704 10.6647C6.4852 10.7254 6.50524 10.784 6.53603 10.837C6.56682 10.89 6.60775 10.9365 6.65649 10.9737C6.70522 11.0109 6.76081 11.0381 6.82007 11.0538C6.87933 11.0696 6.9411 11.0734 7.00187 11.0653C7.06264 11.0571 7.1212 11.0371 7.17422 11.0063C7.22724 10.9755 7.27367 10.9346 7.31088 10.8858C7.34808 10.8371 7.37531 10.7815 7.39103 10.7223L7.54699 10.1336C7.59294 9.96014 7.70598 9.81206 7.8612 9.722L8.02988 9.62413C8.17421 9.54038 8.35341 9.56069 8.49935 9.64161C8.64969 9.72496 8.76303 9.87258 8.76303 10.0445V10.2414C8.76303 10.4187 8.69259 10.5888 8.56719 10.7142L8.13257 11.1488C8.08924 11.1921 8.05487 11.2436 8.03142 11.3002C8.00797 11.3568 7.9959 11.4175 7.9959 11.4787C7.9959 11.54 8.00797 11.6007 8.03142 11.6573C8.05487 11.7139 8.08924 11.7653 8.13257 11.8087C8.17589 11.852 8.22733 11.8864 8.28394 11.9098C8.34055 11.9333 8.40123 11.9453 8.4625 11.9453C8.52377 11.9453 8.58445 11.9333 8.64106 11.9098C8.69767 11.8864 8.74911 11.852 8.79243 11.8087C9.03393 11.5672 9.42547 11.5672 9.66697 11.8087C9.71021 11.8522 9.76161 11.8867 9.81823 11.9102C9.87486 11.9338 9.93558 11.9459 9.9969 11.9459C10.0582 11.9459 10.1189 11.9338 10.1756 11.9102C10.2322 11.8867 10.2836 11.8522 10.3268 11.8087C10.3702 11.7654 10.4046 11.7139 10.4281 11.6573C10.4516 11.6007 10.4637 11.54 10.4637 11.4787C10.4637 11.4174 10.4516 11.3568 10.4281 11.3001C10.4046 11.2435 10.3702 11.1921 10.3268 11.1488L9.89196 10.7139C9.76672 10.5887 9.69637 10.4188 9.69637 10.2417V10.0453C9.69637 9.87296 9.81033 9.72484 9.96095 9.64115C10.1067 9.56018 10.2855 9.54027 10.4296 9.62393L10.5983 9.72181C10.7538 9.81199 10.867 9.96028 10.913 10.134L11.0688 10.7223C11.0846 10.7815 11.1118 10.8371 11.149 10.8858C11.1862 10.9346 11.2326 10.9755 11.2856 11.0063C11.3387 11.0371 11.3972 11.0571 11.458 11.0653C11.5188 11.0734 11.5805 11.0696 11.6398 11.0538C11.6991 11.0381 11.7546 11.0109 11.8034 10.9737C11.8521 10.9365 11.893 10.89 11.9238 10.837C11.9546 10.784 11.9747 10.7254 11.9828 10.6647C11.991 10.6039 11.9871 10.5421 11.9714 10.4829C11.8838 10.1531 12.0802 9.81469 12.41 9.72734C12.4693 9.71159 12.5248 9.68432 12.5735 9.64711C12.6222 9.60989 12.6631 9.56345 12.6938 9.51043C12.7246 9.45741 12.7446 9.39885 12.7527 9.3381C12.7608 9.27735 12.7569 9.2156 12.7411 9.15637C12.7254 9.09714 12.6981 9.04159 12.6609 8.9929C12.6237 8.9442 12.5772 8.90331 12.5242 8.87257C12.4712 8.84182 12.4126 8.82182 12.3519 8.81371C12.2912 8.80559 12.2294 8.80952 12.1702 8.82527L11.552 8.98925C11.3947 9.03097 11.2273 9.00854 11.0865 8.92689L11.0044 8.87922C10.8172 8.77063 10.7356 8.55122 10.7356 8.3348C10.7356 8.17436 10.7963 8.01607 10.9351 7.93553L11.0851 7.84844C11.2292 7.76484 11.4005 7.74185 11.5615 7.78454L12.1706 7.94607C12.288 7.97115 12.4104 7.95011 12.5127 7.88733C12.6149 7.82455 12.6891 7.72484 12.7198 7.60886C12.7505 7.49288 12.7355 7.36952 12.6777 7.26436C12.6199 7.1592 12.5239 7.0803 12.4096 7.044C12.08 6.95665 11.8838 6.61801 11.9714 6.28847C11.9871 6.22921 11.991 6.16743 11.9828 6.10667C11.9747 6.0459 11.9546 5.98734 11.9238 5.93432C11.893 5.8813 11.8521 5.83486 11.8034 5.79766C11.7546 5.76046 11.6991 5.73322 11.6398 5.7175C11.5805 5.70178 11.5188 5.69789 11.458 5.70605C11.3972 5.7142 11.3387 5.73425 11.2856 5.76504C11.2326 5.79582 11.1862 5.83675 11.149 5.88549C11.1118 5.93422 11.0846 5.98981 11.0688 6.04907L10.9004 6.6848C10.8618 6.83023 10.7671 6.95437 10.6369 7.02989L10.5638 7.07233C10.3889 7.17386 10.1711 7.14093 9.99704 7.03784C9.82769 6.93751 9.69683 6.76887 9.69683 6.57203V6.48813C9.69683 6.33698 9.75688 6.19203 9.86375 6.08515L10.3273 5.6216C10.4148 5.5341 10.464 5.41542 10.464 5.29167C10.464 5.16792 10.4148 5.04924 10.3273 4.96174C10.2398 4.87423 10.1211 4.82507 9.99737 4.82507C9.87362 4.82507 9.75494 4.87423 9.66743 4.96174C9.42594 5.20323 9.0344 5.20323 8.7929 4.96174C8.74957 4.91841 8.69814 4.88404 8.64153 4.86059C8.58492 4.83714 8.52424 4.82507 8.46297 4.82507C8.40169 4.82507 8.34102 4.83714 8.28441 4.86059C8.2278 4.88404 8.17636 4.91841 8.13303 4.96174C8.08971 5.00506 8.05534 5.0565 8.03189 5.11311C8.00844 5.16972 7.99637 5.2304 7.99637 5.29167C7.99637 5.35294 8.00844 5.41362 8.03189 5.47023C8.05534 5.52684 8.08971 5.57828 8.13303 5.6216L8.59623 6.0848C8.70333 6.1919 8.7635 6.33716 8.7635 6.48862V6.57316C8.7635 6.76969 8.63309 6.93816 8.46407 7.03843C8.29019 7.14158 8.07247 7.1744 7.89761 7.07293L7.82384 7.03012C7.69344 6.95445 7.59847 6.83005 7.55984 6.68432L7.3915 6.04907C7.35975 5.92939 7.28176 5.82722 7.17469 5.76504C7.06761 5.70285 6.94022 5.68576 6.82053 5.7175C6.70085 5.74925 6.59868 5.82724 6.5365 5.93432C6.47432 6.04139 6.45722 6.16879 6.48897 6.28847C6.5765 6.61801 6.38035 6.95665 6.05077 7.044C5.99054 7.05877 5.93386 7.08539 5.88404 7.12231C5.83422 7.15923 5.79226 7.20571 5.7606 7.25903C5.72895 7.31236 5.70824 7.37145 5.69969 7.43287C5.69113 7.49428 5.69491 7.55679 5.71078 7.61673C5.72666 7.67667 5.75432 7.73285 5.79216 7.78198C5.82999 7.83111 5.87724 7.87221 5.93114 7.90287C5.98504 7.93353 6.04451 7.95314 6.10607 7.96056C6.16764 7.96798 6.23006 7.96305 6.2897 7.94607L6.89795 7.78477C7.05949 7.74193 7.23143 7.765 7.37596 7.84889L7.52528 7.93557C7.66415 8.01617 7.72517 8.17424 7.72517 8.3348C7.72517 8.55118 7.6436 8.77066 7.45643 8.87922L7.37412 8.92697C7.23345 9.00857 7.06614 9.03098 6.90895 8.98929L6.29108 8.82539C6.29078 8.82531 6.29048 8.82527 6.29017 8.82527ZM9.73836 8.06227C9.73815 8.06227 9.73801 8.06249 9.73811 8.06268C9.78044 8.14565 9.80277 8.23976 9.80277 8.33434C9.80277 8.4454 9.77197 8.55134 9.7127 8.6428C9.4957 8.97834 8.96603 8.97974 8.74763 8.6414C8.6888 8.55002 8.65783 8.44349 8.6585 8.3348C8.6585 8.2396 8.6809 8.14534 8.72057 8.06834C8.76907 7.97557 8.84191 7.89777 8.93129 7.84327C9.02067 7.78878 9.1232 7.75966 9.22788 7.75904C9.33255 7.75841 9.43542 7.78631 9.52544 7.83973C9.61533 7.89308 9.68901 7.96986 9.73861 8.06185C9.73871 8.06204 9.73857 8.06227 9.73836 8.06227ZM2.63757 18.3751C2.5138 18.3751 2.3951 18.4243 2.30758 18.5118C2.22007 18.5993 2.1709 18.718 2.1709 18.8418V19.8988C2.1709 20.0226 2.22007 20.1413 2.30758 20.2288C2.3951 20.3163 2.5138 20.3655 2.63757 20.3655C2.76133 20.3655 2.88003 20.3163 2.96755 20.2288C3.05507 20.1413 3.10423 20.0226 3.10423 19.8988V18.8418C3.10423 18.718 3.05507 18.5993 2.96755 18.5118C2.88003 18.4243 2.76133 18.3751 2.63757 18.3751ZM2.63757 14.7683C2.76133 14.7683 2.88003 14.7191 2.96755 14.6316C3.05507 14.5441 3.10423 14.4254 3.10423 14.3016V13.2441C3.10423 13.1204 3.05507 13.0017 2.96755 12.9142C2.88003 12.8266 2.76133 12.7775 2.63757 12.7775C2.5138 12.7775 2.3951 12.8266 2.30758 12.9142C2.22007 13.0017 2.1709 13.1204 2.1709 13.2441V14.3016C2.1709 14.4254 2.22007 14.5441 2.30758 14.6316C2.3951 14.7191 2.5138 14.7683 2.63757 14.7683Z" fill="black"/>
  <path d="M6.29017 8.82527C6.28986 8.82527 6.28955 8.82523 6.28925 8.82515C6.23015 8.8095 6.16856 8.80561 6.10797 8.81371C6.04722 8.82182 5.98866 8.84182 5.93564 8.87257C5.88262 8.90331 5.83618 8.9442 5.79896 8.9929C5.76174 9.04159 5.73448 9.09714 5.71873 9.15637C5.70298 9.2156 5.69905 9.27735 5.70717 9.3381C5.71528 9.39885 5.73529 9.45741 5.76603 9.51043C5.79678 9.56345 5.83766 9.60989 5.88636 9.64711C5.93505 9.68432 5.9906 9.71159 6.04983 9.72734C6.37966 9.81469 6.57609 10.1531 6.4885 10.4829C6.47278 10.5421 6.46889 10.6039 6.47704 10.6647C6.4852 10.7254 6.50524 10.784 6.53603 10.837C6.56682 10.89 6.60775 10.9365 6.65649 10.9737C6.70522 11.0109 6.76081 11.0381 6.82007 11.0538C6.87933 11.0696 6.9411 11.0734 7.00187 11.0653C7.06264 11.0571 7.1212 11.0371 7.17422 11.0063C7.22724 10.9755 7.27367 10.9346 7.31088 10.8858C7.34808 10.8371 7.37531 10.7815 7.39103 10.7223L7.54699 10.1336C7.59294 9.96014 7.70598 9.81206 7.8612 9.722L8.02988 9.62413C8.17421 9.54038 8.35341 9.56069 8.49935 9.64161C8.64969 9.72496 8.76303 9.87258 8.76303 10.0445V10.2414C8.76303 10.4187 8.69259 10.5888 8.56719 10.7142L8.13257 11.1488C8.08924 11.1921 8.05487 11.2436 8.03142 11.3002C8.00797 11.3568 7.9959 11.4175 7.9959 11.4787C7.9959 11.54 8.00797 11.6007 8.03142 11.6573C8.05487 11.7139 8.08924 11.7653 8.13257 11.8087C8.17589 11.852 8.22733 11.8864 8.28394 11.9098C8.34055 11.9333 8.40123 11.9453 8.4625 11.9453C8.52377 11.9453 8.58445 11.9333 8.64106 11.9098C8.69767 11.8864 8.74911 11.852 8.79243 11.8087C9.03393 11.5672 9.42547 11.5672 9.66697 11.8087C9.71021 11.8522 9.76161 11.8867 9.81823 11.9102C9.87486 11.9338 9.93558 11.9459 9.9969 11.9459C10.0582 11.9459 10.1189 11.9338 10.1756 11.9102C10.2322 11.8867 10.2836 11.8522 10.3268 11.8087C10.3702 11.7654 10.4046 11.7139 10.4281 11.6573C10.4516 11.6007 10.4637 11.54 10.4637 11.4787C10.4637 11.4174 10.4516 11.3568 10.4281 11.3001C10.4046 11.2435 10.3702 11.1921 10.3268 11.1488L9.89196 10.7139C9.76672 10.5887 9.69637 10.4188 9.69637 10.2417V10.0453C9.69637 9.87296 9.81033 9.72484 9.96095 9.64115C10.1067 9.56018 10.2855 9.54027 10.4296 9.62393L10.5983 9.72181C10.7538 9.81199 10.867 9.96028 10.913 10.134L11.0688 10.7223C11.0846 10.7815 11.1118 10.8371 11.149 10.8858C11.1862 10.9346 11.2326 10.9755 11.2856 11.0063C11.3387 11.0371 11.3972 11.0571 11.458 11.0653C11.5188 11.0734 11.5805 11.0696 11.6398 11.0538C11.6991 11.0381 11.7546 11.0109 11.8034 10.9737C11.8521 10.9365 11.893 10.89 11.9238 10.837C11.9546 10.784 11.9747 10.7254 11.9828 10.6647C11.991 10.6039 11.9871 10.5421 11.9714 10.4829C11.8838 10.1531 12.0802 9.81469 12.41 9.72734C12.4693 9.71159 12.5248 9.68432 12.5735 9.64711C12.6222 9.60989 12.6631 9.56345 12.6938 9.51043C12.7246 9.45741 12.7446 9.39885 12.7527 9.3381C12.7608 9.27735 12.7569 9.2156 12.7411 9.15637C12.7254 9.09714 12.6981 9.04159 12.6609 8.9929C12.6237 8.9442 12.5772 8.90331 12.5242 8.87257C12.4712 8.84182 12.4126 8.82182 12.3519 8.81371C12.2912 8.80559 12.2294 8.80952 12.1702 8.82527L11.552 8.98925C11.3947 9.03097 11.2273 9.00854 11.0865 8.92689L11.0044 8.87922C10.8172 8.77063 10.7356 8.55122 10.7356 8.3348C10.7356 8.17436 10.7963 8.01607 10.9351 7.93553L11.0851 7.84844C11.2292 7.76484 11.4005 7.74185 11.5615 7.78454L12.1706 7.94607C12.288 7.97115 12.4104 7.95011 12.5127 7.88733C12.6149 7.82455 12.6891 7.72484 12.7198 7.60886C12.7505 7.49288 12.7355 7.36952 12.6777 7.26436C12.6199 7.1592 12.5239 7.0803 12.4096 7.044C12.08 6.95665 11.8838 6.61801 11.9714 6.28847C11.9871 6.22921 11.991 6.16743 11.9828 6.10667C11.9747 6.0459 11.9546 5.98734 11.9238 5.93432C11.893 5.8813 11.8521 5.83486 11.8034 5.79766C11.7546 5.76046 11.6991 5.73322 11.6398 5.7175C11.5805 5.70178 11.5188 5.69789 11.458 5.70605C11.3972 5.7142 11.3387 5.73425 11.2856 5.76504C11.2326 5.79582 11.1862 5.83675 11.149 5.88549C11.1118 5.93422 11.0846 5.98981 11.0688 6.04907L10.9004 6.6848C10.8618 6.83023 10.7671 6.95437 10.6369 7.02989L10.5638 7.07233C10.3889 7.17386 10.1711 7.14093 9.99704 7.03784C9.82769 6.93751 9.69683 6.76887 9.69683 6.57203V6.48813C9.69683 6.33698 9.75688 6.19203 9.86375 6.08515L10.3273 5.6216C10.4148 5.5341 10.464 5.41542 10.464 5.29167C10.464 5.16792 10.4148 5.04924 10.3273 4.96174C10.2398 4.87423 10.1211 4.82507 9.99737 4.82507C9.87362 4.82507 9.75494 4.87423 9.66743 4.96174C9.42594 5.20323 9.0344 5.20323 8.7929 4.96174C8.74957 4.91841 8.69814 4.88404 8.64153 4.86059C8.58492 4.83714 8.52424 4.82507 8.46297 4.82507C8.40169 4.82507 8.34102 4.83714 8.28441 4.86059C8.2278 4.88404 8.17636 4.91841 8.13303 4.96174C8.08971 5.00506 8.05534 5.0565 8.03189 5.11311C8.00844 5.16972 7.99637 5.2304 7.99637 5.29167C7.99637 5.35294 8.00844 5.41362 8.03189 5.47023C8.05534 5.52684 8.08971 5.57828 8.13303 5.6216L8.59623 6.0848C8.70333 6.1919 8.7635 6.33716 8.7635 6.48862V6.57316C8.7635 6.76969 8.63309 6.93816 8.46407 7.03843C8.29019 7.14158 8.07247 7.1744 7.89761 7.07293L7.82384 7.03012C7.69344 6.95445 7.59847 6.83005 7.55984 6.68432L7.3915 6.04907C7.35975 5.92939 7.28176 5.82722 7.17469 5.76504C7.06761 5.70285 6.94022 5.68576 6.82053 5.7175C6.70085 5.74925 6.59868 5.82724 6.5365 5.93432C6.47432 6.04139 6.45722 6.16879 6.48897 6.28847C6.5765 6.61801 6.38035 6.95665 6.05077 7.044C5.99054 7.05877 5.93386 7.08539 5.88404 7.12231C5.83422 7.15923 5.79226 7.20571 5.7606 7.25903C5.72895 7.31236 5.70824 7.37145 5.69969 7.43287C5.69113 7.49428 5.69491 7.55679 5.71078 7.61673C5.72666 7.67667 5.75432 7.73285 5.79216 7.78198C5.82999 7.83111 5.87724 7.87221 5.93114 7.90287C5.98504 7.93353 6.04451 7.95314 6.10607 7.96056C6.16764 7.96798 6.23006 7.96305 6.2897 7.94607L6.89795 7.78477C7.05949 7.74193 7.23143 7.765 7.37596 7.84889L7.52528 7.93557C7.66415 8.01617 7.72517 8.17424 7.72517 8.3348C7.72517 8.55118 7.6436 8.77066 7.45643 8.87922L7.37412 8.92697C7.23345 9.00857 7.06614 9.03098 6.90895 8.98929L6.29108 8.82539C6.29078 8.82531 6.29048 8.82527 6.29017 8.82527ZM9.73836 8.06227C9.73815 8.06227 9.73801 8.06249 9.73811 8.06268C9.78044 8.14565 9.80277 8.23976 9.80277 8.33434C9.80277 8.4454 9.77197 8.55134 9.7127 8.6428C9.4957 8.97834 8.96603 8.97974 8.74763 8.6414C8.6888 8.55002 8.65783 8.44349 8.6585 8.3348C8.6585 8.2396 8.6809 8.14534 8.72057 8.06834C8.76907 7.97557 8.84191 7.89777 8.93129 7.84327C9.02067 7.78878 9.1232 7.75966 9.22788 7.75904C9.33255 7.75841 9.43542 7.78631 9.52544 7.83973C9.61533 7.89308 9.68901 7.96986 9.73861 8.06185C9.73871 8.06204 9.73857 8.06227 9.73836 8.06227ZM2.63757 18.3751C2.5138 18.3751 2.3951 18.4243 2.30758 18.5118C2.22007 18.5993 2.1709 18.718 2.1709 18.8418V19.8988C2.1709 20.0226 2.22007 20.1413 2.30758 20.2288C2.3951 20.3163 2.5138 20.3655 2.63757 20.3655C2.76133 20.3655 2.88003 20.3163 2.96755 20.2288C3.05507 20.1413 3.10423 20.0226 3.10423 19.8988V18.8418C3.10423 18.718 3.05507 18.5993 2.96755 18.5118C2.88003 18.4243 2.76133 18.3751 2.63757 18.3751ZM2.63757 14.7683C2.76133 14.7683 2.88003 14.7191 2.96755 14.6316C3.05507 14.5441 3.10423 14.4254 3.10423 14.3016V13.2441C3.10423 13.1204 3.05507 13.0017 2.96755 12.9142C2.88003 12.8266 2.76133 12.7775 2.63757 12.7775C2.5138 12.7775 2.3951 12.8266 2.30758 12.9142C2.22007 13.0017 2.1709 13.1204 2.1709 13.2441V14.3016C2.1709 14.4254 2.22007 14.5441 2.30758 14.6316C2.3951 14.7191 2.5138 14.7683 2.63757 14.7683Z" stroke="black" stroke-width="0.2" mask="url(#path-2-outside-1_641_3891)"/>
</svg>