<svg xmlns="http://www.w3.org/2000/svg" width="26" height="21" viewBox="0 0 26 21" fill="none">
  <path d="M8.125 16.7375H17.875C18.1512 16.7375 18.3828 16.6434 18.5698 16.4554C18.7566 16.2675 18.85 16.0347 18.85 15.7566C18.85 15.4789 18.7566 15.2479 18.5698 15.0637C18.3828 14.8796 18.1512 14.7875 17.875 14.7875H8.125C7.84875 14.7875 7.61722 14.8816 7.43048 15.0696C7.24347 15.2574 7.15 15.4903 7.15 15.7683C7.15 16.0461 7.24347 16.2771 7.43048 16.4612C7.61722 16.6454 7.84875 16.7375 8.125 16.7375ZM1.95 20.8C1.43 20.8 0.975 20.605 0.585 20.215C0.195 19.825 0 19.37 0 18.85V1.95C0 1.43 0.195 0.975 0.585 0.585C0.975 0.195 1.43 0 1.95 0H24.05C24.57 0 25.025 0.195 25.415 0.585C25.805 0.975 26 1.43 26 1.95V18.85C26 19.37 25.805 19.825 25.415 20.215C25.025 20.605 24.57 20.8 24.05 20.8H1.95ZM1.95 6.6625H24.05V1.95H1.95V6.6625ZM1.95 18.85H24.05V8.6125H1.95V18.85ZM4.97835 12.675C5.25609 12.675 5.4871 12.5809 5.67125 12.3929C5.85539 12.205 5.9475 11.9722 5.9475 11.6941C5.9475 11.4164 5.85344 11.1854 5.6654 11.0012C5.47755 10.8171 5.24465 10.725 4.96665 10.725C4.6889 10.725 4.45789 10.8191 4.27375 11.0071C4.0896 11.1949 3.9975 11.4278 3.9975 11.7058C3.9975 11.9836 4.09155 12.2146 4.2796 12.3987C4.46745 12.5829 4.70035 12.675 4.97835 12.675ZM9.00835 12.675C9.28609 12.675 9.5171 12.5809 9.70125 12.3929C9.88539 12.205 9.9775 11.9722 9.9775 11.6941C9.9775 11.4164 9.88344 11.1854 9.6954 11.0012C9.50755 10.8171 9.27465 10.725 8.99665 10.725C8.7189 10.725 8.48789 10.8191 8.30375 11.0071C8.1196 11.1949 8.0275 11.4278 8.0275 11.7058C8.0275 11.9836 8.12156 12.2146 8.3096 12.3987C8.49745 12.5829 8.73034 12.675 9.00835 12.675ZM13.0058 12.675C13.2836 12.675 13.5146 12.5809 13.6987 12.3929C13.8829 12.205 13.975 11.9722 13.975 11.6941C13.975 11.4164 13.8809 11.1854 13.6929 11.0012C13.505 10.8171 13.2722 10.725 12.9941 10.725C12.7164 10.725 12.4854 10.8191 12.3012 11.0071C12.1171 11.1949 12.025 11.4278 12.025 11.7058C12.025 11.9836 12.1191 12.2146 12.3071 12.3987C12.4949 12.5829 12.7278 12.675 13.0058 12.675ZM17.0358 12.675C17.3136 12.675 17.5446 12.5809 17.7287 12.3929C17.9129 12.205 18.005 11.9722 18.005 11.6941C18.005 11.4164 17.9109 11.1854 17.7229 11.0012C17.535 10.8171 17.3022 10.725 17.0241 10.725C16.7464 10.725 16.5154 10.8191 16.3312 11.0071C16.1471 11.1949 16.055 11.4278 16.055 11.7058C16.055 11.9836 16.1491 12.2146 16.3371 12.3987C16.525 12.5829 16.7578 12.675 17.0358 12.675ZM21.0333 12.675C21.3111 12.675 21.5421 12.5809 21.7262 12.3929C21.9104 12.205 22.0025 11.9722 22.0025 11.6941C22.0025 11.4164 21.9084 11.1854 21.7204 11.0012C21.5325 10.8171 21.2997 10.725 21.0216 10.725C20.7439 10.725 20.5129 10.8191 20.3288 11.0071C20.1446 11.1949 20.0525 11.4278 20.0525 11.7058C20.0525 11.9836 20.1466 12.2146 20.3346 12.3987C20.5224 12.5829 20.7553 12.675 21.0333 12.675Z" fill="black"/>
</svg>