<svg xmlns="http://www.w3.org/2000/svg" width="24" height="23" viewBox="0 0 24 23" fill="none">
  <path d="M3.10909 23C2.24546 23 1.51136 22.6965 0.906818 22.0896C0.302274 21.4827 0 20.7456 0 19.8786C0 19.0115 0.302274 18.2745 0.906818 17.6676C1.51136 17.0606 2.24546 16.7571 3.10909 16.7571C3.97273 16.7571 4.70684 17.0606 5.31136 17.6676C5.91589 18.2745 6.21818 19.0115 6.21818 19.8786C6.21818 20.7456 5.91589 21.4827 5.31136 22.0896C4.70684 22.6965 3.97273 23 3.10909 23ZM3.10909 21.3571C3.54545 21.3571 3.9 21.2202 4.17273 20.9464C4.44545 20.6726 4.58182 20.3167 4.58182 19.8786C4.58182 19.4405 4.44545 19.0845 4.17273 18.8107C3.9 18.5369 3.54545 18.4 3.10909 18.4C2.67273 18.4 2.31818 18.5369 2.04545 18.8107C1.77273 19.0845 1.63636 19.4405 1.63636 19.8786C1.63636 20.3167 1.77273 20.6726 2.04545 20.9464C2.31818 21.2202 2.67273 21.3571 3.10909 21.3571ZM6.76364 23C6.96365 22.7627 7.14093 22.4935 7.29545 22.1923C7.44998 21.8911 7.56365 21.6127 7.63636 21.3571H10.7455V13.1429C10.7455 12.4576 10.5025 11.871 10.0165 11.3831C9.53046 10.8952 8.94616 10.6512 8.26364 10.6512H2.78182V15.1143C2.52727 15.1143 2.25 15.1508 1.95 15.2238C1.65 15.2968 1.38182 15.3972 1.14545 15.525V9.00833H4.55455V4.81905C4.55455 3.50476 5.02729 2.37301 5.97273 1.42381C6.91816 0.474605 8.04545 0 9.35455 0C10.3727 0 11.2818 0.264681 12.0818 0.794048C12.8818 1.32341 13.4727 2.05357 13.8545 2.98452L21.4364 21.3571H24V23H16.7455V21.3571H19.7455L12.2455 3.66905C11.9727 3.03016 11.5954 2.53274 11.1136 2.17679C10.6318 1.82083 10.0455 1.64286 9.35455 1.64286C8.48182 1.64286 7.73635 1.95318 7.11818 2.57381C6.50002 3.19444 6.19091 3.94286 6.19091 4.81905V9.00833H8.268C9.41056 9.00833 10.3818 9.4099 11.1818 10.2131C11.9818 11.0163 12.3818 11.9929 12.3818 13.1429V23H6.76364Z" fill="black"/>
</svg>