<svg xmlns="http://www.w3.org/2000/svg" width="26" height="26" viewBox="0 0 26 26" fill="none">
  <path d="M15.8449 0H15.9178C16.0599 0.0257563 16.202 0.043394 16.3441 0.0722272C16.9065 0.186276 17.2308 0.557101 17.6186 0.945425L18.4559 1.78425L21.4091 4.73743L24.2984 7.62621L25.0938 8.42081C25.4658 8.79275 25.8168 9.10089 25.9332 9.63443C25.9469 9.69749 25.9774 9.82635 26 9.88258V10.3546L25.9914 10.3777C25.9636 10.4538 25.9353 10.5874 25.9114 10.6707C25.8568 10.8562 25.7726 11.0317 25.6621 11.1903C25.4994 11.4188 25.2053 11.6941 24.9988 11.9003L23.9767 12.9214L22.6101 14.2884C22.3299 14.5686 22.0061 14.9105 21.7073 15.1601C21.4444 15.3769 21.1552 15.5598 20.8466 15.7044C20.0213 16.0945 19.1808 16.1649 18.29 15.9994C17.9389 16.2574 17.5709 16.5549 17.2255 16.8242L15.3135 18.3155L9.56902 22.7956L7.47791 24.4263C6.69009 25.0411 5.99512 25.6699 4.99403 25.8923C4.87317 25.9193 4.54317 25.9557 4.453 26H3.66104C3.58563 25.9718 3.48708 25.957 3.40671 25.9444C1.97815 25.7227 0.702778 24.6824 0.226908 23.2833C0.171953 23.1254 0.127325 22.9642 0.0933064 22.8005C0.0727752 22.7009 0.0366276 22.4261 0 22.3539V21.5344C0.0465863 21.4421 0.0734166 21.1548 0.102266 21.034C0.19793 20.6332 0.350985 20.2483 0.556693 19.8911C0.78547 19.4953 1.18574 19.0145 1.47677 18.6415L2.9074 16.808L7.68125 10.6859L9.20815 8.72771C9.44087 8.4296 9.80101 7.99806 10.0031 7.70041C9.99909 7.683 9.99544 7.66552 9.9921 7.64797C9.78564 6.5772 10.015 5.46832 10.6292 4.56728C10.927 4.13081 11.3574 3.73364 11.7336 3.35761L13.0472 2.04409L14.0604 1.03021C14.4582 0.632548 14.7994 0.219597 15.3675 0.0879489C15.5306 0.0501653 15.6823 0.0306956 15.8449 0ZM6.32908 23.2564L13.3566 17.7746L15.5316 16.0789L16.2203 15.5427C16.3456 15.4451 16.5172 15.3189 16.632 15.2141C16.3424 14.9847 16.1285 14.7558 15.8684 14.4955L14.9475 13.5743L11.8219 10.4493C11.5689 10.1963 11.3145 9.94429 11.0625 9.69015C11.0055 9.6327 10.812 9.39826 10.7783 9.37688C10.6355 9.5238 10.4109 9.82998 10.2769 10.0022L9.40659 11.1196L6.48926 14.8604L3.45606 18.7495L2.54059 19.9233C2.37704 20.1327 2.12546 20.4367 1.99104 20.6557C1.74868 21.0514 1.62263 21.5074 1.62734 21.9714C1.63598 22.6147 1.8994 23.2284 2.3598 23.6778C2.82584 24.1353 3.45711 24.3849 4.11003 24.3699C4.88238 24.3543 5.37153 24.0247 5.94129 23.5575C6.02842 23.4862 6.24688 23.3101 6.32908 23.2564ZM22.9699 11.6197L23.8799 10.7111C24.027 10.5641 24.1999 10.4041 24.329 10.2439C24.4938 10.0393 24.1323 9.75962 23.9959 9.62428L23.4711 9.10432C23.2604 9.29009 23.0196 9.54357 22.8169 9.74657L21.7278 10.8367C21.4575 11.1071 21.1261 11.4749 20.8058 11.6634C20.4921 11.8501 20.1298 11.9391 19.7653 11.9189C18.9029 11.8661 18.5114 11.3527 17.9499 10.7913L16.7683 9.60978L15.3213 8.16239C15.0941 7.93503 14.7437 7.60534 14.5427 7.37321C14.2111 6.99173 14.0479 6.49229 14.0901 5.98857C14.1111 5.69126 14.2038 5.40343 14.3602 5.14975C14.5468 4.84936 14.9972 4.43428 15.2641 4.16755L16.5523 2.88063C16.6249 2.80817 16.8431 2.60826 16.8708 2.52896C16.8834 2.49323 16.4579 2.08782 16.4117 2.04401C16.2861 1.92477 16.0827 1.65379 15.9141 1.63599C15.8745 1.63192 15.8345 1.63314 15.7953 1.63959C15.6529 1.72404 15.3069 2.09092 15.1699 2.22793L14.0749 3.32367L12.7838 4.61393C12.5892 4.80858 12.227 5.15194 12.0667 5.3559C11.8597 5.61769 11.7097 5.9199 11.6265 6.24311C11.4609 6.8745 11.5552 7.54588 11.8883 8.10721C12.0877 8.44215 12.3585 8.68757 12.6321 8.96026L13.2643 9.59182L15.2838 11.6111L16.7515 13.0787C16.9939 13.3216 17.3732 13.7239 17.6253 13.9227C17.8869 14.127 18.1892 14.273 18.5118 14.3512C19.1542 14.5146 19.8352 14.4182 20.4071 14.0832C20.7667 13.868 21.2544 13.3366 21.5677 13.0227L22.9699 11.6197ZM19.9442 10.2947C20.1073 10.1761 20.5755 9.68584 20.7483 9.51258L22.317 7.94546C21.25 6.90355 20.1817 5.81435 19.126 4.75658L18.4154 4.04353C18.3499 3.97786 18.1104 3.73014 18.0464 3.69168C17.5398 4.18477 17.0391 4.6957 16.5383 5.19562L16.0622 5.66905C15.9453 5.78516 15.7159 5.96989 15.7079 6.14119C15.7059 6.18549 15.733 6.25838 15.7615 6.29403C15.9114 6.4551 16.0779 6.61713 16.2332 6.77253L17.2435 7.78286L18.8453 9.38413C19.1163 9.65509 19.3855 9.9287 19.6606 10.1954C19.7523 10.2843 19.8143 10.3335 19.9442 10.2947Z" fill="black"/>
  <path d="M11.2546 12.4596C11.8101 12.4469 12.3504 12.641 12.7709 13.004C13.2166 13.3897 13.4901 13.9371 13.5308 14.525C13.5746 15.116 13.3799 15.7 12.9901 16.1463C12.7484 16.4219 12.4578 16.6981 12.1934 16.9572C11.4556 17.6803 11.0039 18.3482 9.88421 18.4211C9.31726 18.4345 8.76605 18.234 8.34027 17.8594C7.88139 17.45 7.61816 16.9166 7.58675 16.3005C7.55721 15.7061 7.76511 15.1242 8.16468 14.6832C8.44828 14.3741 8.76536 14.0775 9.0616 13.7792C9.75222 13.0837 10.192 12.5062 11.2546 12.4596ZM9.94271 16.7716C10.0296 16.7519 10.111 16.7128 10.1805 16.6571C10.3325 16.5367 10.6964 16.1545 10.8569 15.9939L11.4477 15.4026C11.6946 15.1553 12.0049 14.921 11.8898 14.5267C11.7821 14.1576 11.4984 14.0773 11.1609 14.1084C10.7992 14.2017 9.81955 15.3901 9.46676 15.6764C9.27054 15.8357 9.15936 16.1093 9.23633 16.3622C9.28302 16.517 9.3903 16.6463 9.53377 16.7208C9.65889 16.7849 9.8058 16.7986 9.94271 16.7716Z" fill="black"/>
</svg>