<svg xmlns="http://www.w3.org/2000/svg" width="23" height="23" viewBox="0 0 23 23" fill="none">
  <path d="M10.1701 23V21.4389H11.7347V15.5848C11.4739 15.5155 11.2305 15.4244 11.0045 15.3117C10.7786 15.1989 10.5699 15.0472 10.3787 14.8563L7.32766 16.7557L0 14.6742V10.5113H10.2222C10.3961 10.3205 10.5873 10.1557 10.7959 10.017C11.0045 9.87819 11.2305 9.76548 11.4739 9.67873V5.20362L17.0805 0L20.6009 2.23756L15.2029 11.0317C15.342 11.2571 15.442 11.4913 15.5028 11.7342C15.5637 11.977 15.6028 12.2285 15.6202 12.4887L19.2971 13.3733L23 19.9819L20.0533 22.9219L13.2993 16.2093V21.4389H14.8639V23H10.1701ZM3.12925 4.00679V2.4457H9.38776V4.00679H3.12925ZM13.0385 5.88009V9.54864C13.2298 9.58335 13.4167 9.63539 13.5992 9.70475C13.7817 9.77411 13.9512 9.85217 14.1077 9.93891L18.4887 2.65385L17.1848 1.97738L13.0385 5.88009ZM0 8.16968V6.6086H5.21542V8.16968H0ZM12.517 14.1538C12.9603 14.1538 13.3319 14.0042 13.6318 13.705C13.9317 13.4058 14.0816 13.0351 14.0816 12.5928C14.0816 12.1505 13.9317 11.7797 13.6318 11.4805C13.3319 11.1813 12.9603 11.0317 12.517 11.0317C12.0737 11.0317 11.7021 11.1813 11.4022 11.4805C11.1023 11.7797 10.9524 12.1505 10.9524 12.5928C10.9524 13.0351 11.1023 13.4058 11.4022 13.705C11.7021 14.0042 12.0737 14.1538 12.517 14.1538ZM7.09297 15.0905L9.5703 13.5814C9.48335 13.3386 9.43558 13.0871 9.42687 12.8269C9.41816 12.5667 9.4312 12.3152 9.46599 12.0724H1.56463V13.4774L7.09297 15.0905ZM18.28 14.7002L15.2812 14.0238C15.1769 14.2319 15.0465 14.427 14.89 14.6092C14.7336 14.7913 14.5597 14.9517 14.3685 15.0905L20.0533 20.7364L21.0442 19.7477L18.28 14.7002ZM2.08617 20.6584V19.0973H7.30159V20.6584H2.08617Z" fill="black"/>
</svg>