<svg xmlns="http://www.w3.org/2000/svg" width="24" height="29" viewBox="0 0 24 29" fill="none">
  <path d="M11.2318 0H17.444L17.4552 0.0059086C17.7221 0.144424 17.9774 0.218631 18.0872 0.571881C18.1755 0.855998 18.1471 1.33865 18.1471 1.65024L18.1468 2.71712C18.1467 3.32913 18.1663 4.06904 18.1439 4.67353C18.8373 4.71021 19.401 4.94023 19.8807 5.45826C19.9946 5.58139 20.0744 5.7074 20.173 5.84105C21.3849 5.92098 22.4769 5.5811 23.4236 6.66989C23.6838 6.96939 23.8619 7.33108 23.9408 7.71982C24.0139 8.07891 23.9977 8.53286 23.9977 8.90589L23.9972 10.264L23.9974 11.5683C23.9979 12.0125 24.023 12.4765 23.906 12.9084C23.624 13.9477 22.6361 14.6609 21.5642 14.6304C21.2947 14.6228 21.0106 14.6399 20.7395 14.636C20.6648 14.635 20.5903 14.6427 20.5152 14.6363C20.5055 14.6356 20.496 14.6346 20.4863 14.6335C20.486 15.2761 20.508 16.0397 20.4832 16.6699C20.6718 16.7695 20.8701 16.8662 21.0503 16.9791C22.0793 17.6244 22.758 18.7648 22.8131 19.9801C22.8332 20.4263 22.8253 20.8772 22.8253 21.3249L22.8248 23.6409L22.8253 25.4607C22.8255 26.1391 22.8883 26.7847 22.5581 27.4017C22.2682 27.9435 21.815 28.3457 21.23 28.5478C21.1089 28.5896 20.8096 28.6399 20.7315 28.6731H2.11955C2.02532 28.6438 1.88533 28.6179 1.78402 28.5954C1.18811 28.4591 0.688057 28.0708 0.362054 27.563C-0.0494211 26.9219 0.00617495 26.2507 0.00666497 25.5244L0.00702899 23.9157L0.00679101 21.5913C0.00638499 20.8331 -0.0459351 19.8994 0.146418 19.1853C0.392435 18.2724 1.01213 17.442 1.81632 16.9492C1.98613 16.8452 2.16648 16.7733 2.3388 16.6714C2.36491 15.8937 2.34314 14.9881 2.34316 14.2034L2.3429 9.47154L2.34271 7.86598C2.34265 7.46085 2.32508 6.93715 2.40369 6.54632C2.49554 6.10017 2.71571 5.69056 3.03713 5.36782C3.35857 5.04649 3.76723 4.82657 4.21248 4.73533C4.52648 4.6681 4.95427 4.67699 5.27449 4.67718L6.45192 4.67833L10.5398 4.67697L10.5404 2.35354C10.5402 1.96667 10.4968 0.877181 10.5919 0.577774C10.6991 0.239917 10.9442 0.145149 11.2318 0ZM19.0933 26.9133L19.9719 26.9147C20.1433 26.915 20.4519 26.9269 20.6092 26.8897C20.7185 26.8646 20.8187 26.81 20.8989 26.7318C21.1347 26.4982 21.0742 25.9076 21.0742 25.5881L21.0736 24.239C21.0731 22.9432 21.075 21.6465 21.0727 20.35C21.0715 19.715 20.9115 19.1851 20.4496 18.7312C20.1607 18.4472 19.7654 18.2411 19.3624 18.1821C19.0623 18.138 18.7792 18.1443 18.4765 18.1443L17.5368 18.1444L14.2069 18.1445H7.37105L5.12696 18.1444C4.73558 18.1444 4.31962 18.1373 3.92968 18.1457C3.87313 18.1469 3.8166 18.1487 3.76008 18.151C3.10481 18.2215 2.64152 18.3837 2.20805 18.9223C1.99223 19.1937 1.8507 19.5167 1.79736 19.8596C1.74186 20.2191 1.76043 20.8942 1.76066 21.279L1.76149 23.632L1.76062 25.4175C1.75991 25.7204 1.74469 26.042 1.76846 26.3424C1.82287 27.0303 2.51305 26.9143 2.9941 26.9142L4.16 26.9135L7.7614 26.9132L19.0933 26.9133ZM4.10495 8.77445C4.27601 8.76495 4.44585 8.77417 4.61648 8.77409C4.96543 8.77392 5.28965 8.75738 5.56842 9.00697C5.73931 9.16121 5.84112 9.37761 5.85102 9.60759C5.8637 9.84504 5.77953 10.0775 5.61777 10.2518C5.42005 10.4649 5.16906 10.5422 4.88649 10.5365C4.66527 10.532 4.31337 10.5565 4.10445 10.5292L4.10518 12.2825L4.63037 12.2856C4.99759 12.2853 5.32101 12.2679 5.6033 12.5512C5.76698 12.7166 5.85671 12.9413 5.85205 13.174C5.85016 13.4094 5.75338 13.6341 5.58358 13.7972C5.32002 14.0497 5.03116 14.0596 4.68318 14.0523C4.49875 14.0485 4.28821 14.0677 4.10664 14.0462L4.10539 16.3761C5.32238 16.3941 6.54645 16.3676 7.76209 16.3808C8.01964 15.1249 8.25241 13.8223 8.49118 12.5604L8.67032 11.6114C8.71503 11.3749 8.76325 11.0602 8.85082 10.8448C8.96049 10.5787 9.1459 10.3507 9.38402 10.1891C9.76164 9.93719 10.1767 9.93753 10.6121 9.94205C10.8783 9.94481 11.1465 9.94314 11.4129 9.94368L12.1797 9.94291C12.9326 9.94113 13.4229 9.97089 13.8855 10.646C14.0693 10.9768 14.1102 11.3336 14.1801 11.7006L14.3808 12.7566L15.0695 16.3728C15.4324 16.3871 15.8108 16.3809 16.1756 16.3808L17.8705 16.3805C18.1368 16.3805 18.4632 16.3717 18.7256 16.3823C18.7312 15.6179 18.7326 14.8533 18.7298 14.0889L18.7295 10.022L18.73 7.99793C18.7301 7.65145 18.7379 7.30085 18.7168 6.95535C18.7097 6.83965 18.6388 6.69928 18.5572 6.61843C18.3228 6.3862 17.846 6.44056 17.5328 6.44076L16.5847 6.44171L13.5685 6.44185L7.77131 6.44173C6.81177 6.4417 5.83249 6.43094 4.87507 6.44173C4.82394 6.44254 4.77282 6.44395 4.72172 6.44597C4.443 6.48004 4.19124 6.5652 4.13006 6.88768C4.08579 7.12103 4.1039 7.39683 4.10414 7.63724L4.10495 8.77445ZM22.0636 12.6891C22.1441 12.5976 22.2024 12.5231 22.2196 12.3969C22.2507 12.1706 22.2439 11.9235 22.2441 11.6948L22.2444 10.6595L22.2442 9.10433C22.2441 8.82009 22.248 8.53373 22.2388 8.24985C22.233 8.0747 22.1811 7.88365 22.0447 7.76524C21.9218 7.65859 21.7482 7.62014 21.5887 7.61501C21.2216 7.60322 20.8523 7.62207 20.4853 7.61561L20.4869 11.0852V12.2283C20.4869 12.41 20.4944 12.6912 20.4824 12.8668C20.8624 12.8711 21.8111 12.9628 22.0636 12.6891ZM12.2967 1.76121C12.2725 2.71648 12.3005 3.71211 12.291 4.67265C13.2597 4.68004 14.2284 4.68161 15.1971 4.67739L16.0281 4.67924C16.0885 4.67921 16.3413 4.68235 16.385 4.67503C16.3994 3.70646 16.3777 2.7328 16.3899 1.76596L13.5381 1.76342L12.7447 1.7659C12.6186 1.76682 12.416 1.77625 12.2967 1.76121ZM12.3947 11.7124C11.9541 11.6955 11.4915 11.7144 11.0489 11.7083C10.8664 11.7058 10.6214 11.7187 10.444 11.7017C10.1673 13.0237 9.9514 14.368 9.68384 15.6928C9.63833 15.9182 9.59277 16.1531 9.55408 16.3796L12.401 16.3806C12.6591 16.3806 13.0299 16.3698 13.2787 16.3843L12.3947 11.7124Z" fill="black"/>
  <path d="M11.3419 19.9046C12.7908 19.8644 13.9982 21.006 14.0391 22.4549C14.08 23.9038 12.9389 25.1118 11.4901 25.1535C10.0401 25.1951 8.83107 24.0531 8.79013 22.6031C8.7492 21.1532 9.8919 19.9446 11.3419 19.9046ZM11.5886 23.3839C12.0625 23.2874 12.3673 22.8236 12.2679 22.3502C12.1685 21.877 11.7028 21.575 11.2301 21.6773C10.7615 21.7788 10.4627 22.2396 10.5613 22.7088C10.6598 23.1781 11.1188 23.4796 11.5886 23.3839Z" fill="black"/>
</svg>