<svg xmlns="http://www.w3.org/2000/svg" width="26" height="26" viewBox="0 0 26 26" fill="none">
  <path d="M21.8421 10.6522C23.2531 10.7218 24.3999 11.711 24.5449 13.1163C24.6563 14.1973 24.75 15.6792 24.75 17.6071C24.75 19.535 24.6563 21.0169 24.5449 22.0979C24.3999 23.5032 23.2531 24.4924 21.8421 24.5619C20.0042 24.6525 17.0319 24.7499 12.75 24.7499C8.46806 24.7499 5.49577 24.6525 3.6579 24.5619C2.24687 24.4924 1.10008 23.5032 0.955154 22.0979C0.843663 21.0169 0.75 19.535 0.75 17.6071C0.75 15.6791 0.843663 14.1973 0.955154 13.1163C1.10008 11.711 2.24687 10.7218 3.6579 10.6522C5.49577 10.5617 8.46806 10.4642 12.75 10.4642C17.0319 10.4642 20.0042 10.5617 21.8421 10.6522Z" stroke="black" stroke-width="1.5" stroke-linecap="round" stroke-linejoin="round"/>
  <path d="M20.1447 13.9071C20.8179 13.9444 21.2668 14.5016 21.2871 15.1756C21.3042 15.7449 21.3192 16.5461 21.3192 17.6071C21.3192 18.6681 21.3042 19.4693 21.2871 20.0386C21.2668 20.7126 20.8179 21.2698 20.1447 21.3071C19.9841 21.316 19.8045 21.3214 19.6049 21.3214C19.4054 21.3214 19.2258 21.316 19.0651 21.3071C18.3919 21.2698 17.943 20.7126 17.9227 20.0386C17.9056 19.4693 17.8906 18.6681 17.8906 17.6071C17.8906 16.5461 17.9056 15.7449 17.9227 15.1756C17.943 14.5016 18.3919 13.9444 19.0651 13.9071C19.2258 13.8982 19.4054 13.8928 19.6049 13.8928C19.8045 13.8928 19.9841 13.8982 20.1447 13.9071Z" stroke="black" stroke-width="1.5" stroke-linecap="round" stroke-linejoin="round"/>
  <path d="M13.2912 13.9071C13.9644 13.9444 14.4133 14.5016 14.4336 15.1756C14.4507 15.7449 14.4657 16.5461 14.4657 17.6071C14.4657 18.6681 14.4507 19.4693 14.4336 20.0386C14.4133 20.7126 13.9644 21.2698 13.2912 21.3071C13.1305 21.316 12.9509 21.3214 12.7514 21.3214C12.5519 21.3214 12.3723 21.316 12.2116 21.3071C11.5384 21.2698 11.0895 20.7126 11.0692 20.0386C11.0521 19.4693 11.0371 18.6681 11.0371 17.6071C11.0371 16.5461 11.0521 15.7449 11.0692 15.1756C11.0895 14.5016 11.5384 13.9444 12.2116 13.9071C12.3723 13.8982 12.5519 13.8928 12.7514 13.8928C12.9509 13.8928 13.1305 13.8982 13.2912 13.9071Z" stroke="black" stroke-width="1.5" stroke-linecap="round" stroke-linejoin="round"/>
  <path d="M12.7512 0.75C12.035 1.69677 11.9448 2.85989 12.7512 4.17857C13.5576 5.49726 13.4673 6.66034 12.7512 7.60714" stroke="black" stroke-width="1.5" stroke-linecap="round" stroke-linejoin="round"/>
  <path d="M7.03633 0.75C6.32016 1.69677 6.22987 2.85989 7.03633 4.17857C7.84273 5.49726 7.75244 6.66034 7.03633 7.60714" stroke="black" stroke-width="1.5" stroke-linecap="round" stroke-linejoin="round"/>
  <path d="M18.4621 0.75C17.7459 1.69677 17.6557 2.85989 18.4621 4.17857C19.2685 5.49726 19.1783 6.66034 18.4621 7.60714" stroke="black" stroke-width="1.5" stroke-linecap="round" stroke-linejoin="round"/>
  <path d="M7.60631 15.6071C7.60631 16.5539 6.83882 17.3214 5.89202 17.3214C4.94522 17.3214 4.17773 16.5539 4.17773 15.6071C4.17773 14.6603 4.94522 13.8928 5.89202 13.8928C6.83882 13.8928 7.60631 14.6603 7.60631 15.6071Z" stroke="black" stroke-width="1.5" stroke-linecap="round" stroke-linejoin="round"/>
</svg>