<svg xmlns="http://www.w3.org/2000/svg" width="20" height="26" viewBox="0 0 20 26" fill="none">
  <path d="M6 26C5.46667 26 5 25.805 4.6 25.415C4.2 25.025 4 24.57 4 24.05V22.23C4 21.255 4.25 20.3666 4.75 19.565C5.25 18.7634 5.9778 18.0591 6.93333 17.4525L5.83333 11.2775H2C1.46667 11.2775 1 11.0825 0.6 10.6925C0.2 10.3025 0 9.8475 0 9.3275V3.25C0 2.70834 0.194447 2.24791 0.583333 1.86875C0.97222 1.48959 1.44445 1.3 2 1.3H9.06667V0.975C9.06667 0.693335 9.16113 0.460415 9.35 0.27625C9.53887 0.0920856 9.7778 0 10.0667 0H13.6C13.8889 0 14.1278 0.0920856 14.3167 0.27625C14.5055 0.460415 14.6 0.693335 14.6 0.975V1.3H18.7667C19.0778 1.3 19.3333 1.41375 19.5333 1.64125C19.7333 1.86875 19.8111 2.13416 19.7667 2.4375L17.0667 17.4525C18.0222 18.0591 18.75 18.7634 19.25 19.565C19.75 20.3666 20 21.255 20 22.23V24.05C20 24.57 19.8 25.025 19.4 25.415C19 25.805 18.5333 26 18 26H6ZM5.46667 9.3275L4.4 3.25H2V9.3275H5.46667ZM12 22.1C12.3778 22.1 12.6945 21.9754 12.95 21.7262C13.2055 21.4771 13.3333 21.1684 13.3333 20.8C13.3333 20.4316 13.2055 20.1229 12.95 19.8738C12.6945 19.6246 12.3778 19.5 12 19.5C11.6222 19.5 11.3055 19.6246 11.05 19.8738C10.7945 20.1229 10.6667 20.4316 10.6667 20.8C10.6667 21.1684 10.7945 21.4771 11.05 21.7262C11.3055 21.9754 11.6222 22.1 12 22.1ZM8.73333 16.25H15.2667L17.6 3.25H6.4L8.73333 16.25ZM6 24.05H18V22.23C18 21.06 17.5555 20.0959 16.6667 19.3375C15.7778 18.5791 14.6778 18.2 13.3667 18.2H10.6333C9.3222 18.2 8.2222 18.5791 7.33333 19.3375C6.44447 20.0959 6 21.06 6 22.23V24.05Z" fill="black"/>
</svg>