<svg xmlns="http://www.w3.org/2000/svg" width="22" height="22" viewBox="0 0 22 22" fill="none">
  <path d="M6.76143 0H19.1053C19.1993 0.035664 19.3357 0.0465447 19.4367 0.0683305C19.5595 0.0948417 19.6757 0.125574 19.7952 0.164716C20.6172 0.441247 21.2943 1.03542 21.6753 1.81458C21.7877 2.04033 21.8704 2.27972 21.9213 2.52676C21.9374 2.60624 21.9786 2.86306 22 2.91831V22H2.5798C2.57504 21.8196 2.57519 21.6293 2.57847 21.4486C2.59844 20.3487 2.54975 19.2309 2.58147 18.1331C3.43758 18.1279 4.31475 18.1469 5.16787 18.1308C4.83928 17.8581 4.57775 17.6426 4.28303 17.3264C4.21511 17.2535 3.9415 16.9038 3.89542 16.8788C3.77299 16.8124 2.78557 16.8577 2.52445 16.8326C2.24648 16.8051 1.97421 16.736 1.71671 16.6277C0.994555 16.3234 0.431868 15.7319 0.163948 14.9956C0.128145 14.8955 0.0985811 14.7934 0.0754275 14.6897C0.0570173 14.6041 0.0338046 14.4341 0 14.3607V10.3109L8.39938 10.314C8.39395 10.2613 8.39598 10.2004 8.39707 10.1472C8.40469 9.77566 8.38969 9.40052 8.40097 9.02941L7.10701 9.02512C7.12304 8.8215 7.10609 8.49973 7.10973 8.28404C7.1199 7.68093 7.09502 7.0552 7.11223 6.45355C6.3911 6.41569 5.85716 6.28328 5.24616 5.86332C4.59231 5.41392 4.08193 4.66323 3.94043 3.87964C3.8256 3.86473 3.57831 3.87037 3.45512 3.87035L2.57695 3.87075C2.5911 3.45017 2.56925 3.00499 2.58145 2.57841L3.92485 2.57791C4.0152 2.28045 4.03938 2.13282 4.18508 1.83012C4.55791 1.04827 5.23037 0.449867 6.05024 0.170376C6.17751 0.128237 6.30732 0.0942002 6.43889 0.0684683C6.53166 0.0507654 6.67684 0.0329381 6.76143 0ZM18.0907 5.1589V10.775L18.0906 12.3042C18.0905 13.0521 18.0968 13.6207 17.978 14.3699C17.8004 15.497 17.4093 16.5797 16.8257 17.5599C16.744 17.6978 16.5542 18.0097 16.4539 18.13C16.6967 18.1337 16.9394 18.1345 17.1821 18.1324L20.7091 18.1318L20.7113 7.66378L20.7112 4.53301L20.7118 3.65099C20.7119 3.41613 20.7193 3.17334 20.686 2.94146C20.6271 2.53573 20.4402 2.15942 20.1523 1.86743C19.5268 1.23599 18.9124 1.29197 18.1103 1.29219L10.7612 1.29249L8.33472 1.29246C7.93521 1.29246 7.47953 1.28164 7.08499 1.29405C6.52564 1.31942 6.05663 1.49243 5.67018 1.91187C5.31653 2.29532 5.13268 2.8053 5.16032 3.3262C5.18818 3.83865 5.41906 4.31889 5.80192 4.66066C6.07377 4.90567 6.4104 5.06725 6.77161 5.12612C7.06514 5.17299 7.65921 5.15623 7.98191 5.15606L10.0296 5.15572L15.2946 5.15561C16.212 5.15563 17.1761 5.14047 18.0907 5.1589ZM12.7221 16.5857C13.6192 15.6877 14.1506 14.4885 14.2133 13.2208C14.2437 12.7066 14.2118 12.1304 14.2251 11.6085C13.3301 11.5982 12.4242 11.6049 11.5285 11.6049L6.77585 11.6048L4.75882 11.605L4.2199 11.6064C4.11761 11.6071 3.96658 11.6146 3.86964 11.5995C3.86667 11.9199 3.86591 12.2402 3.86736 12.5605C3.8676 12.8436 3.86227 13.1249 3.88797 13.4069C3.9905 14.5836 4.49391 15.6895 5.31404 16.5395C6.27338 17.5415 7.59574 18.1148 8.98275 18.1301C10.3443 18.1479 11.6572 17.6241 12.6327 16.6739C12.662 16.6453 12.6938 16.615 12.7221 16.5857ZM15.5126 10.3152V12.2254C15.5126 12.7172 15.5231 13.1841 15.4695 13.6752C15.3039 15.1485 14.636 16.5198 13.5782 17.5584C13.4387 17.6945 13.2942 17.8256 13.1452 17.9513C13.1044 17.9853 12.9545 18.0864 12.948 18.128C13.2099 18.1469 13.6453 18.1331 13.9203 18.1334C14.1613 18.1337 14.5883 18.1459 14.8124 18.1291C15.058 17.8369 15.246 17.6161 15.4652 17.2954C16.2125 16.1971 16.6627 14.924 16.7719 13.6C16.8044 13.1811 16.8013 12.8119 16.8013 12.3926L16.8012 11.0975L16.8011 8.07674C16.801 7.5417 16.7923 6.98428 16.8033 6.45233C15.4562 6.43609 14.0864 6.44858 12.7378 6.44875L11.5592 6.44921C11.413 6.44942 11.1312 6.45993 10.997 6.45025C10.9917 6.45757 10.9865 6.46489 10.9812 6.47221C10.9799 7.18715 10.9728 8.35859 10.9786 9.02621L10.1204 9.02761C9.99886 9.0279 9.802 9.03654 9.68894 9.02732C9.69047 9.41535 9.70508 9.92864 9.68692 10.3071C10.1758 10.3221 10.7001 10.3122 11.1919 10.3121L13.9762 10.312C14.481 10.312 15.0092 10.3043 15.5126 10.3152ZM8.41882 6.45025C8.41353 6.45762 8.40822 6.46499 8.40293 6.47237C8.38676 6.83472 8.41529 7.38748 8.39785 7.72893C8.67881 7.73489 8.95982 7.73675 9.24082 7.73449C9.34375 7.73453 9.59492 7.74159 9.68847 7.73279C9.67826 7.57781 9.68708 7.35701 9.6874 7.19732C9.68787 6.95464 9.68127 6.69225 9.69005 6.45129C9.40386 6.44884 9.11765 6.44823 8.83144 6.44949C8.71723 6.44975 8.52551 6.45796 8.41882 6.45025ZM1.29151 11.5995C1.28078 12.2623 1.29453 12.9288 1.28945 13.5919C1.28749 13.8467 1.27408 14.1495 1.33178 14.3952C1.3933 14.6573 1.52455 14.8979 1.71165 15.0915C1.96121 15.3495 2.30424 15.5188 2.66318 15.5442C2.73439 15.5492 3.07099 15.5756 3.11567 15.5399C2.73306 14.6863 2.5657 13.7325 2.57858 12.8034C2.58407 12.407 2.56873 12.004 2.5806 11.6085C2.30352 11.6051 2.02643 11.6044 1.74933 11.6062C1.63786 11.6065 1.38894 11.6152 1.29151 11.5995ZM20.708 20.697C20.7165 20.2757 20.7028 19.8474 20.7134 19.4289C19.2892 19.4117 17.8404 19.4252 16.4147 19.4252L8.38895 19.4253L5.19088 19.4252L4.3149 19.4264C4.20362 19.4266 3.96688 19.4354 3.86964 19.4198C3.86264 19.8494 3.87213 20.28 3.86754 20.7088L14.196 20.7106L18.5465 20.7105C19.2528 20.7105 19.9591 20.7099 20.6653 20.7113C20.6809 20.7113 20.6971 20.7088 20.708 20.697Z" fill="black"/>
</svg>