<svg xmlns="http://www.w3.org/2000/svg" width="22" height="24" viewBox="0 0 22 24" fill="none">
  <path d="M3.76316 18.6V4.41L1.62105 1.44C1.40877 1.14 1.38166 0.825 1.53971 0.495C1.69776 0.165 1.95645 0 2.31579 0H15.4289C15.9664 0 16.424 0.195702 16.8019 0.5871C17.1796 0.978702 17.3684 1.453 17.3684 2.01V3.9H20.2632C20.7408 3.9 21.1497 4.07622 21.4899 4.4286C21.83 4.78122 22 5.205 22 5.7V12.3C22 12.795 21.83 13.2187 21.4899 13.5711C21.1497 13.9237 20.7408 14.1 20.2632 14.1H17.3684V18.6C17.3684 19.095 17.1984 19.5187 16.8584 19.8711C16.5181 20.2237 16.1092 20.4 15.6316 20.4H5.5C5.02237 20.4 4.61352 20.2237 4.2735 19.8711C3.93325 19.5187 3.76316 19.095 3.76316 18.6ZM5.5 18.6H15.6316V1.8H4.05263L5.5 3.75V18.6ZM17.3684 12.3H20.2632V5.7H17.3684V12.3ZM12.4439 3.6C12.0409 3.6 11.6995 3.7458 11.4197 4.0374C11.1399 4.32918 11 4.68342 11 5.1V15.3C11 15.7166 11.1411 16.0708 11.4232 16.3626C11.7053 16.6542 12.0479 16.8 12.4508 16.8C12.8538 16.8 13.1952 16.6542 13.475 16.3626C13.7548 16.0708 13.8947 15.7166 13.8947 15.3V5.1C13.8947 4.68342 13.7536 4.32918 13.4715 4.0374C13.1894 3.7458 12.8468 3.6 12.4439 3.6ZM0.868421 24C0.622368 24 0.416165 23.9132 0.249816 23.7396C0.08327 23.5662 0 23.3512 0 23.0946C0 22.8382 0.08327 22.625 0.249816 22.455C0.416165 22.285 0.622368 22.2 0.868421 22.2H19.9737C20.2197 22.2 20.426 22.2868 20.5926 22.4604C20.7589 22.6338 20.8421 22.8488 20.8421 23.1054C20.8421 23.3618 20.7589 23.575 20.5926 23.745C20.426 23.915 20.2197 24 19.9737 24H0.868421Z" fill="black"/>
</svg>