<svg xmlns="http://www.w3.org/2000/svg" width="22" height="20" viewBox="0 0 22 20" fill="none">
  <path d="M7 16C4.17157 16 2.75736 16 1.87868 15.1213C1 14.2426 1 12.8284 1 10C1 7.17157 1 5.75736 1.87868 4.87868C2.75736 4 4.17157 4 7 4H15C17.8284 4 19.2426 4 20.1213 4.87868C21 5.75736 21 7.17157 21 10C21 12.8284 21 14.2426 20.1213 15.1213C19.2426 16 17.8284 16 15 16H7Z" stroke="black" stroke-width="2"/>
  <path d="M3.5 1H18.5" stroke="black" stroke-width="2" stroke-linecap="round"/>
  <path d="M3.5 19H18.5" stroke="black" stroke-width="2" stroke-linecap="round"/>
</svg>