<svg xmlns="http://www.w3.org/2000/svg" width="23" height="19" viewBox="0 0 23 19" fill="none">
  <path d="M1.725 18.4C1.25063 18.4 0.844577 18.2311 0.506862 17.8931C0.168952 17.5554 0 17.1494 0 16.675V1.725C0 1.25063 0.168952 0.844485 0.506862 0.506575C0.844577 0.16886 1.25063 0 1.725 0H21.275C21.7494 0 22.1555 0.16886 22.4934 0.506575C22.8311 0.844485 23 1.25063 23 1.725V16.675C23 17.1494 22.8311 17.5554 22.4934 17.8931C22.1555 18.2311 21.7494 18.4 21.275 18.4H1.725ZM1.725 16.675H21.275V1.725H1.725V16.675ZM4.3125 14.95H14.0875C14.3319 14.95 14.5367 14.8673 14.7022 14.7019C14.8674 14.5367 14.95 14.3319 14.95 14.0875V4.3125C14.95 4.06812 14.8674 3.86325 14.7022 3.69782C14.5367 3.53263 14.3319 3.45 14.0875 3.45H4.3125C4.06812 3.45 3.86331 3.53263 3.69811 3.69782C3.53269 3.86325 3.45 4.06812 3.45 4.3125V14.0875C3.45 14.3319 3.53269 14.5367 3.69811 14.7019C3.86331 14.8673 4.06812 14.95 4.3125 14.95ZM18.4052 14.95C18.6509 14.95 18.8552 14.8668 19.0181 14.7005C19.181 14.5343 19.2625 14.3283 19.2625 14.0823C19.2625 13.8366 19.1793 13.6323 19.013 13.4694C18.8468 13.3065 18.6408 13.225 18.3948 13.225C18.1491 13.225 17.9448 13.3082 17.7819 13.4745C17.619 13.6407 17.5375 13.8467 17.5375 14.0927C17.5375 14.3384 17.6207 14.5427 17.787 14.7056C17.9532 14.8685 18.1592 14.95 18.4052 14.95ZM5.175 13.225V5.175H13.225V13.225H5.175ZM18.4052 10.0625C18.6509 10.0625 18.8552 9.9793 19.0181 9.81295C19.181 9.64678 19.2625 9.44075 19.2625 9.19482C19.2625 8.94913 19.1793 8.74477 19.013 8.58187C18.8468 8.41898 18.6408 8.3375 18.3948 8.3375C18.1491 8.3375 17.9448 8.4207 17.7819 8.58705C17.619 8.75322 17.5375 8.95925 17.5375 9.20518C17.5375 9.45087 17.6207 9.65523 17.787 9.81812C17.9532 9.98102 18.1592 10.0625 18.4052 10.0625ZM18.4052 5.175C18.6509 5.175 18.8552 5.0918 19.0181 4.92545C19.181 4.75927 19.2625 4.55325 19.2625 4.30732C19.2625 4.06163 19.1793 3.85727 19.013 3.69438C18.8468 3.53148 18.6408 3.45 18.3948 3.45C18.1491 3.45 17.9448 3.5332 17.7819 3.69955C17.619 3.86573 17.5375 4.07175 17.5375 4.31767C17.5375 4.56337 17.6207 4.76773 17.787 4.93063C17.9532 5.09352 18.1592 5.175 18.4052 5.175Z" fill="black"/>
</svg>