<svg xmlns="http://www.w3.org/2000/svg" width="14" height="28" viewBox="0 0 14 28" fill="none">
  <path d="M1.4 6.3C1.1025 6.3 0.85316 6.19871 0.65205 5.9962C0.45066 5.7939 0.35 5.54309 0.35 5.2437C0.35 4.94459 0.45066 4.69581 0.65205 4.4975C0.85316 4.29919 1.1025 4.2 1.4 4.2H5.95V1.05C5.95 0.7525 6.05129 0.503069 6.2538 0.3017C6.4561 0.100569 6.70691 0 7.0063 0C7.30541 0 7.55419 0.100569 7.7525 0.3017C7.95081 0.503069 8.05 0.7525 8.05 1.05V4.2H12.6C12.8975 4.2 13.1469 4.30129 13.3483 4.5038C13.5494 4.7061 13.65 4.95691 13.65 5.2563C13.65 5.55541 13.5494 5.80419 13.3483 6.0025C13.1469 6.20081 12.8975 6.3 12.6 6.3H1.4ZM2.1 28C1.5225 28 1.02816 27.7943 0.61705 27.3829C0.20566 26.9718 0 26.4775 0 25.9V12.25C0 11.0833 0.40831 10.0917 1.225 9.275C2.04169 8.45831 3.03331 8.05 4.2 8.05H9.8C10.9667 8.05 11.9583 8.45831 12.775 9.275C13.5917 10.0917 14 11.0833 14 12.25V25.9C14 26.4775 13.7944 26.9718 13.3833 27.3829C12.9719 27.7943 12.4775 28 11.9 28H2.1ZM2.1 25.9H11.9V12.25C11.9 11.655 11.6988 11.1562 11.2963 10.7537C10.8938 10.3512 10.395 10.15 9.8 10.15H4.2C3.605 10.15 3.10625 10.3512 2.70375 10.7537C2.30125 11.1562 2.1 11.655 2.1 12.25V14H5.6C5.8975 14 6.14691 14.1013 6.3483 14.3038C6.54941 14.5061 6.65 14.7569 6.65 15.0563C6.65 15.3554 6.54941 15.6042 6.3483 15.8025C6.14691 16.0008 5.8975 16.1 5.6 16.1H2.1V19.95H5.6C5.8975 19.95 6.14691 20.0513 6.3483 20.2538C6.54941 20.4561 6.65 20.7069 6.65 21.0063C6.65 21.3054 6.54941 21.5542 6.3483 21.7525C6.14691 21.9508 5.8975 22.05 5.6 22.05H2.1V25.9Z" fill="black"/>
</svg>