<svg xmlns="http://www.w3.org/2000/svg" width="26" height="18" viewBox="0 0 26 18" fill="none">
  <path d="M1 5C1 5.52529 1.31039 6.04543 1.91345 6.53073C2.5165 7.01604 3.40042 7.45699 4.51472 7.82843C5.62902 8.19986 6.95189 8.4945 8.4078 8.69552C9.86371 8.89654 11.4241 9 13 9C14.5759 9 16.1363 8.89654 17.5922 8.69552C19.0481 8.4945 20.371 8.19986 21.4853 7.82843C22.5996 7.45699 23.4835 7.01604 24.0866 6.53073C24.6896 6.04543 25 5.52529 25 5C25 4.47471 24.6896 3.95457 24.0866 3.46927C23.4835 2.98396 22.5996 2.54301 21.4853 2.17157C20.371 1.80014 19.0481 1.5055 17.5922 1.30448C16.1363 1.10346 14.5759 1 13 1C11.4241 1 9.86371 1.10346 8.4078 1.30448C6.95189 1.5055 5.62902 1.80014 4.51472 2.17157C3.40042 2.54301 2.5165 2.98396 1.91345 3.46927C1.31039 3.95457 1 4.47471 1 5Z" stroke="black" stroke-width="2" stroke-linecap="round" stroke-linejoin="round"/>
  <path d="M1 5C1 8.1826 2.26428 11.2348 4.51472 13.4853C6.76516 15.7357 9.8174 17 13 17C16.1826 17 19.2348 15.7357 21.4853 13.4853C23.7357 11.2348 25 8.1826 25 5" stroke="black" stroke-width="2" stroke-linecap="round" stroke-linejoin="round"/>
</svg>