<svg width="19" height="19" viewBox="0 0 19 19" fill="none" xmlns="http://www.w3.org/2000/svg">
<path d="M17.2419 10.8022C17.3605 10.9209 17.5135 11.0198 17.5723 11.177C17.6019 11.2564 17.6069 11.3428 17.5864 11.425C17.5659 11.5072 17.521 11.5813 17.4576 11.6375C17.332 11.7487 17.1505 11.7643 16.99 11.8133L15.0592 12.4025C13.7864 12.791 12.79 13.7871 12.4013 15.0599L11.8119 16.9895C11.7628 17.1503 11.7477 17.3323 11.6366 17.4584C11.5804 17.5221 11.5062 17.5672 11.4239 17.5877C11.3415 17.6083 11.2548 17.6032 11.1754 17.5733C11.018 17.514 10.9193 17.3604 10.8004 17.2415L1.04194 7.48378C0.720777 7.12552 0.531237 6.66854 0.504554 6.18813L0.5 1.25902C0.5 1.05772 0.579968 0.864658 0.722313 0.722313C0.864658 0.579968 1.05772 0.5 1.25902 0.5H6.18585C6.66626 0.526051 7.12337 0.715374 7.48151 1.03663L17.2419 10.8022Z" stroke="white" stroke-linecap="round" stroke-linejoin="round"/>
<path d="M2.77539 4.29515C2.77539 4.69776 2.93533 5.08388 3.22002 5.36857C3.50471 5.65326 3.89083 5.8132 4.29344 5.8132C4.69605 5.8132 5.08217 5.65326 5.36686 5.36857C5.65155 5.08388 5.81149 4.69776 5.81149 4.29515C5.81149 3.89254 5.65155 3.50642 5.36686 3.22173C5.08217 2.93704 4.69605 2.7771 4.29344 2.7771C3.89083 2.7771 3.50471 2.93704 3.22002 3.22173C2.93533 3.50642 2.77539 3.89254 2.77539 4.29515Z" stroke="white" stroke-linecap="round" stroke-linejoin="round"/>
</svg>
