<svg xmlns="http://www.w3.org/2000/svg" width="26" height="26" viewBox="0 0 26 26" fill="none">
  <path d="M16.4292 17.0048L17.5721 19.4648C17.5721 19.4648 22.7149 20.557 22.7149 23.1549C22.7149 25 20.4292 25 20.4292 25H14.334L11.334 23.3333" stroke="black" stroke-width="2" stroke-linecap="round" stroke-linejoin="round"/>
  <path d="M9.57471 17.0048L8.4319 19.4648C8.4319 19.4648 3.28906 20.557 3.28906 23.1549C3.28906 25 5.57478 25 5.57478 25H8.33661L11.3367 23.3333L15.0033 20.9999" stroke="black" stroke-width="2" stroke-linecap="round" stroke-linejoin="round"/>
  <path d="M1 18.2348C1 18.2348 3.85712 17.6199 5.57144 17.0048C7.28576 8.39465 12.4285 9.00961 13 9.00961C13.5715 9.00961 18.7142 8.39465 20.4286 17.0048C22.1428 17.6199 25 18.2348 25 18.2348" stroke="black" stroke-width="2" stroke-linecap="round" stroke-linejoin="round"/>
  <path d="M13.0006 6.33331C14.4734 6.33331 15.6673 5.13943 15.6673 3.66665C15.6673 2.19388 14.4734 1 13.0006 1C11.5279 1 10.334 2.19388 10.334 3.66665C10.334 5.13943 11.5279 6.33331 13.0006 6.33331Z" stroke="black" stroke-width="2" stroke-linecap="round" stroke-linejoin="round"/>
</svg>
