<svg xmlns="http://www.w3.org/2000/svg" width="24" height="24" viewBox="0 0 24 24" fill="none">
  <path d="M10.9087 0.0109101C11.5129 -0.0169045 12.1806 0.0190577 12.7902 0.00412017C13.137 -0.00437094 13.4574 0.0550515 13.7067 0.314889C14.0303 0.652036 13.9881 1.06874 13.9842 1.50088L16.6208 1.50318C16.9728 1.50346 17.2826 1.50147 17.6335 1.54668C18.7266 1.69174 19.7408 2.1947 20.5178 2.97699C21.33 3.78953 21.8355 4.85812 21.949 6.00123C21.986 6.35962 21.9771 6.73403 21.9768 7.09512L21.9757 8.49362C22.0992 8.49467 22.2229 8.49248 22.3462 8.4945C22.8729 8.5031 23.3847 8.41038 23.7546 8.87536C23.9201 9.08339 23.9951 9.34915 23.9628 9.61298C23.9185 9.98169 23.6055 10.3865 23.2483 10.4566C22.9464 10.5158 22.2765 10.5291 21.9766 10.4929L21.9763 17.3424C21.9763 18.3869 21.979 19.4366 21.9748 20.4763C21.9701 21.6173 21.3396 22.6365 20.3294 23.1568C19.7614 23.4493 19.2237 23.5064 18.5966 23.4886C18.544 23.5587 18.4865 23.6249 18.4246 23.6867C18.0809 24.0279 17.7265 23.9867 17.2767 23.9881C16.9347 23.9833 16.618 24.0187 16.2937 23.8849C16.1181 23.8127 15.9264 23.5059 15.7795 23.4971C15.4837 23.4791 15.168 23.4857 14.8705 23.4857L13.0703 23.4863L9.67663 23.486C9.1646 23.486 8.61379 23.4986 8.10737 23.4885C8.05603 23.5571 7.99998 23.6219 7.93959 23.6828C7.63912 23.9829 7.37259 23.9837 6.97986 23.9864L6.45795 23.9876C6.27663 23.9865 6.13938 23.9778 5.96281 23.9388C5.47086 23.8305 5.6191 23.4621 5.05647 23.4827C4.25615 23.512 3.41636 23.1568 2.85607 22.5835C2.44818 22.1709 2.17016 21.6479 2.05636 21.0791C1.97274 20.6585 1.99605 20.013 1.99612 19.5679L1.99658 17.5455C1.99636 15.2148 1.96928 12.8315 1.99964 10.505C1.77879 10.4985 1.5288 10.5031 1.3065 10.5026C0.910137 10.5086 0.610529 10.4988 0.305629 10.2129C-0.104972 9.82794 -0.0955134 9.17542 0.295827 8.77942C0.600617 8.47099 0.966437 8.49332 1.37098 8.49507L1.99383 8.49551C2.00306 7.83517 1.99082 7.17347 1.99723 6.51301C1.99901 6.32997 2.00749 6.14872 2.02588 5.96655C2.14537 4.83948 2.64513 3.78672 3.44288 2.98163C4.25042 2.16361 5.31682 1.65118 6.46006 1.53177C6.89659 1.48827 7.41876 1.50316 7.86567 1.50318L9.9856 1.50288C9.98641 1.10896 9.94766 0.70139 10.2042 0.379633C10.4006 0.133297 10.606 0.0516487 10.9087 0.0109101ZM7.23785 21.4818L7.24113 17.7908L7.24062 16.7149C7.24013 16.2628 7.2244 15.8198 7.33379 15.3766C7.47369 14.8122 7.76744 14.2976 8.18237 13.8901C9.20241 12.8811 10.2406 12.9901 11.5315 12.991L13.5121 12.992C15.3706 13.0082 16.7357 14.3691 16.7312 16.2328C16.7313 17.9727 16.7494 19.743 16.731 21.4801L18.1725 21.4837C18.3128 21.4837 18.5508 21.4685 18.6866 21.4835C19.2693 21.548 19.8921 21.2521 19.9614 20.6118C20.0035 20.2231 19.9781 19.7241 19.9776 19.3055L19.9775 16.8267L19.9782 8.08792L7.81853 8.08129L5.01556 8.08105C4.83681 8.08102 4.1254 8.10333 3.99929 8.06981C3.97505 9.0152 3.99424 10.0311 3.99445 10.9847L3.99513 16.3946L3.99503 19.2245L3.99364 20.0872C3.99325 20.5252 3.95937 20.8612 4.29467 21.1938C4.52516 21.4225 4.79458 21.4843 5.11208 21.4829C5.81703 21.477 6.53456 21.4932 7.23785 21.4818ZM17.0193 6.07771L18.9244 6.07776C19.2515 6.07779 19.6221 6.06938 19.9464 6.07988C19.9041 5.89398 19.8712 5.71924 19.8097 5.53768C19.5885 4.88453 19.1486 4.32772 18.5646 3.9613C18.2128 3.73688 17.8155 3.59327 17.4016 3.54082C16.9847 3.48875 16.3311 3.50655 15.8921 3.50676L13.5323 3.50708L9.22632 3.50714C8.50233 3.50714 7.69597 3.4908 6.97802 3.5092C6.09917 3.54658 5.39697 3.81838 4.78719 4.47275C4.29896 4.99667 4.19225 5.41177 4.02068 6.07312C5.51547 6.09838 7.0644 6.07814 8.56245 6.07812L17.0193 6.07771ZM9.23892 21.4801L13.5854 21.4826C13.962 21.4824 14.3548 21.4884 14.73 21.4818L14.7339 17.7332L14.7336 16.7054C14.7334 16.2038 14.7902 15.7182 14.4033 15.3353C14.0849 15.0201 13.7969 14.9964 13.3674 14.9945L11.5156 14.9941C11.156 14.9942 10.7589 14.9866 10.4024 14.9974C10.0195 15.0256 9.77518 15.0944 9.51002 15.3916C9.19289 15.7472 9.23882 16.1886 9.23871 16.6327L9.23865 17.6346C9.23871 18.9084 9.25312 20.2083 9.23892 21.4801Z" fill="black"/>
  <path d="M11.4057 18.4917C11.6138 18.4855 11.8222 18.4832 12.0306 18.4846C12.4049 18.4838 12.7517 18.4493 13.0698 18.6798C13.2868 18.8358 13.431 19.0732 13.4695 19.3374C13.5089 19.599 13.4416 19.8653 13.2832 20.0771C13.0984 20.3215 12.8727 20.4424 12.5724 20.4815C12.3036 20.4964 11.4736 20.5074 11.2526 20.4556C11.1247 20.4253 11.0043 20.3693 10.8987 20.2911C10.6814 20.1306 10.537 19.9124 10.4992 19.6424C10.4593 19.3704 10.5295 19.0938 10.6944 18.8738C10.8837 18.6229 11.1036 18.5322 11.4057 18.4917Z" fill="black"/>
  <path d="M11.4065 15.9943C11.6166 15.9881 11.8267 15.9856 12.037 15.9868C12.4214 15.9862 12.7668 15.9519 13.0892 16.1965C13.3024 16.3579 13.441 16.599 13.4728 16.8645C13.5056 17.1266 13.4321 17.3907 13.2688 17.5981C13.0828 17.834 12.8614 17.9473 12.5672 17.9841C12.2964 17.9983 11.4744 18.0097 11.2526 17.9577C11.1248 17.9276 11.0044 17.8717 10.8988 17.7937C10.6814 17.6332 10.537 17.415 10.4993 17.145C10.4584 16.8673 10.5325 16.5851 10.7043 16.3633C10.8931 16.1206 11.1104 16.033 11.4065 15.9943Z" fill="black"/>
</svg>
