<svg xmlns="http://www.w3.org/2000/svg" width="25" height="25" viewBox="0 0 25 25" fill="none">
  <path d="M11.7825 0H13.2126C13.3831 0.0558104 13.828 0.062579 14.0353 0.0896219C14.6078 0.161525 15.1749 0.271735 15.7327 0.419508C19.0236 1.30475 21.8127 3.49083 23.4585 6.47496C24.1392 7.70992 24.6036 9.0522 24.8318 10.4437C24.8781 10.717 24.9135 10.9919 24.938 11.2679C24.95 11.3895 24.9684 11.737 25 11.8346V13.1761C24.9678 13.2834 24.9601 13.4623 24.95 13.5779C24.9348 13.7628 24.9166 13.9474 24.8955 14.1317C24.8384 14.6135 24.7177 15.203 24.5959 15.6694C23.7443 18.9005 21.639 21.6586 18.7469 23.3323C17.4818 24.0665 16.0964 24.5703 14.6553 24.8204C14.4731 24.8521 14.2858 24.8806 14.1104 24.9033C13.9456 24.9246 13.3445 24.9598 13.2292 25H11.7863C11.6951 24.9691 11.3721 24.9486 11.2579 24.9384C10.9693 24.9125 10.7234 24.8818 10.4385 24.8335C9.10124 24.6123 7.80918 24.1737 6.61364 23.5349C3.58794 21.9155 1.35751 19.1276 0.441698 15.8202C0.295674 15.2821 0.184583 14.7352 0.10912 14.1827C0.0870988 14.0122 0.0695519 13.8411 0.0564973 13.6696C0.0469667 13.5555 0.0359924 13.3341 0 13.23V11.7604C0.0351857 11.6696 0.0641421 11.2105 0.0788513 11.0766C0.106015 10.843 0.138813 10.61 0.177216 10.3779C0.413492 8.98392 0.887295 7.64081 1.57799 6.40709C3.21621 3.46964 5.96914 1.31636 9.21469 0.433823C9.76514 0.284684 10.325 0.17292 10.8906 0.0992949C11.0552 0.0776409 11.2203 0.0604955 11.3858 0.0478778C11.4959 0.0387776 11.6813 0.0319618 11.7825 0ZM12.8132 23.5248C15.6838 23.4521 18.4109 22.254 20.406 20.1887C22.3417 18.145 23.2531 16.0228 23.5106 13.2355C23.0458 13.245 22.5526 13.2364 22.0852 13.2364L19.6182 13.2357C19.6364 13.0546 19.6249 12.7522 19.6249 12.5631C19.6255 10.8834 19.076 9.29973 18.0104 7.99458C16.8229 6.53839 15.1066 5.61227 13.2375 5.4191C12.9705 5.39197 12.4954 5.36611 12.2275 5.38857C11.7569 5.41787 11.42 5.45106 10.9499 5.55317C9.48302 5.87695 8.15709 6.65883 7.16381 7.78577C6.23558 8.83229 5.63795 10.1302 5.44624 11.5158C5.37279 12.0589 5.36223 12.6844 5.37476 13.2345L2.77347 13.2366L1.91598 13.2368C1.78557 13.2369 1.61409 13.2441 1.48805 13.236C1.54381 13.7894 1.58257 14.2155 1.69917 14.7694C2.21892 17.245 3.57445 19.4666 5.53824 21.061C7.58627 22.7336 10.1703 23.6088 12.8132 23.5248ZM1.484 11.7627C2.19626 11.7798 2.91405 11.7597 3.62681 11.7673C3.72858 11.7684 3.83788 11.7697 3.93895 11.7651C3.99528 11.2989 4.04413 10.9201 4.15714 10.4585C4.61863 8.58113 5.6985 6.91367 7.2229 5.72466C8.75072 4.53193 10.6381 3.89308 12.5763 3.91261C13.0322 3.92372 13.3868 3.94441 13.8417 4.01625C15.6985 4.31234 17.4069 5.20902 18.7053 6.56891C19.8181 7.73048 20.5815 9.18171 20.9084 10.7567C20.9663 11.0364 21.0404 11.4762 21.0532 11.7619C21.8685 11.7819 22.7 11.7504 23.5107 11.769L23.5084 11.7552C23.4802 11.5793 23.4703 11.3221 23.4468 11.1282C23.3965 10.7134 23.322 10.3019 23.2239 9.8957C22.6089 7.3671 21.1205 5.13699 19.0214 3.59886C17.1093 2.19249 14.7917 1.44559 12.4182 1.47065C9.4662 1.51768 6.68597 2.64263 4.62159 4.77344C3.12872 6.28792 2.10918 8.20435 1.68746 10.2887C1.62565 10.5987 1.57648 10.9111 1.54005 11.2251C1.52034 11.4004 1.51056 11.591 1.484 11.7627Z" fill="black"/>
  <path d="M12.324 9.69732C13.2162 9.67009 14.041 9.93779 14.7162 10.5318C15.3976 11.1276 15.8096 11.9733 15.8588 12.8772C15.8771 13.1746 15.8674 13.5426 15.8673 13.8448L15.8672 15.4734L15.8674 16.942C15.8673 17.4465 15.8917 17.9481 15.7776 18.4421C15.6487 18.9929 15.3832 19.5023 15.0056 19.9235C14.4199 20.5839 13.5974 20.9867 12.7165 21.0444C11.8529 21.082 11.0523 20.851 10.3773 20.2959C9.67619 19.728 9.23305 18.9018 9.14777 18.0036C9.12198 17.7225 9.13185 17.3578 9.13188 17.0711L9.13219 15.5721L9.13174 13.8606C9.13173 13.3551 9.10537 12.8194 9.21361 12.3269C9.33377 11.7917 9.58202 11.2936 9.93708 10.8755C10.5584 10.1333 11.3765 9.78357 12.324 9.69732ZM12.5253 19.581C13.0764 19.5579 13.5221 19.3663 13.9005 18.9577C14.1346 18.7053 14.2936 18.3924 14.3594 18.0544C14.4147 17.7743 14.4018 17.389 14.4017 17.0944L14.4015 15.908L14.4016 14.0617C14.4017 13.7188 14.4025 13.3776 14.3975 13.0349C14.3824 12.0012 13.5184 11.1336 12.4742 11.1755C11.9435 11.1828 11.4987 11.3633 11.127 11.7481C10.8843 11.9981 10.7173 12.3115 10.6451 12.6523C10.5821 12.9476 10.5966 13.3006 10.5966 13.6063L10.597 14.6505C10.5975 15.6562 10.5955 16.6639 10.5977 17.6698C10.5989 18.1912 10.803 18.6889 11.1832 19.0525C11.5435 19.3985 12.0258 19.5885 12.5253 19.581Z" fill="black"/>
  <path d="M11.7852 13.2004C11.8894 13.2128 12.1513 13.2058 12.2649 13.2058L13.2296 13.2063C13.2351 13.5361 13.2397 14.2938 13.2242 14.6575C13.2175 14.6649 13.2107 14.6722 13.2038 14.6796C12.998 14.6929 11.9183 14.7076 11.7863 14.6698C11.7561 14.5983 11.7566 13.2527 11.7852 13.2004Z" fill="black"/>
</svg>