<svg xmlns="http://www.w3.org/2000/svg" width="24" height="20" viewBox="0 0 24 20" fill="none">
  <path d="M22.3526 0H1.64738C0.739016 0 0 0.739016 0 1.64738V17.6752C0 18.0651 0.316109 18.3813 0.706021 18.3813H1.41204V19.0873C1.41204 19.4772 1.72815 19.7933 2.11806 19.7933C2.50797 19.7933 2.82408 19.4772 2.82408 19.0873V18.3813H21.1759V19.0873C21.1759 19.4772 21.492 19.7933 21.8819 19.7933C22.2718 19.7933 22.588 19.4772 22.588 19.0873V18.3813H23.294C23.6839 18.3813 24 18.0651 24 17.6752V1.64738C24 0.739016 23.261 0 22.3526 0ZM22.588 1.64738V2.82408H15.5278V1.41204H22.3526C22.4824 1.41204 22.588 1.51762 22.588 1.64738ZM9.88429 2.82408V1.41204H14.1157V2.82408H9.88429ZM1.64738 1.41204H8.47225V2.82408H1.41204V1.64738C1.41204 1.51762 1.51762 1.41204 1.64738 1.41204ZM1.41204 16.9692V4.23612H22.588V16.9692H1.41204Z" fill="black"/>
  <path d="M15.5585 8.70375C15.2828 8.42807 14.8358 8.42807 14.5601 8.70375L13.3548 9.90897H12.7059V9.26005L13.9111 8.05482C14.1868 7.77914 14.1868 7.33209 13.9111 7.05637C13.6354 6.78069 13.1884 6.78069 12.9126 7.05637L11.9998 7.96921L11.087 7.05637C10.8113 6.78069 10.3643 6.78069 10.0886 7.05637C9.81283 7.33205 9.81283 7.7791 10.0886 8.05482L11.2938 9.26005V9.90897H10.6448L9.43962 8.70375C9.16395 8.42807 8.71689 8.42807 8.44117 8.70375C8.16544 8.97943 8.16544 9.42648 8.44117 9.7022L9.35396 10.615L8.44117 11.5279C8.16544 11.8036 8.16544 12.2506 8.44117 12.5263C8.71694 12.8021 9.1639 12.8021 9.43962 12.5263L10.6448 11.3211H11.2938V11.97L10.0886 13.1752C9.81283 13.4509 9.81283 13.8979 10.0886 14.1737C10.3642 14.4493 10.8113 14.4493 11.087 14.1737L11.9998 13.2608L12.9127 14.1737C13.1884 14.4494 13.6354 14.4494 13.9111 14.1737C14.1869 13.898 14.1869 13.4509 13.9111 13.1752L12.7059 11.97V11.3211H13.3548L14.56 12.5263C14.8357 12.802 15.2827 12.802 15.5585 12.5263C15.8342 12.2506 15.8342 11.8036 15.5585 11.5278L14.6457 10.615L15.5585 9.70216C15.8342 9.42653 15.8342 8.97947 15.5585 8.70375Z" fill="black"/>
  <path d="M20.4721 15.5572C20.8621 15.5572 21.1782 15.2411 21.1782 14.8512C21.1782 14.4612 20.8621 14.1451 20.4721 14.1451C20.0822 14.1451 19.7661 14.4612 19.7661 14.8512C19.7661 15.2411 20.0822 15.5572 20.4721 15.5572Z" fill="black"/>
  <path d="M17.6504 15.5572C18.0403 15.5572 18.3564 15.2411 18.3564 14.8512C18.3564 14.4612 18.0403 14.1451 17.6504 14.1451C17.2604 14.1451 16.9443 14.4612 16.9443 14.8512C16.9443 15.2411 17.2604 15.5572 17.6504 15.5572Z" fill="black"/>
</svg>