<svg xmlns="http://www.w3.org/2000/svg" width="26" height="25" viewBox="0 0 26 25" fill="none">
  <path d="M3.36818 25C2.43258 25 1.63731 24.6701 0.982386 24.0104C0.327464 23.3507 0 22.5496 0 21.6071C0 20.6647 0.327464 19.8636 0.982386 19.2039C1.63731 18.5442 2.43258 18.2143 3.36818 18.2143C4.30379 18.2143 5.09907 18.5442 5.75398 19.2039C6.40888 19.8636 6.73636 20.6647 6.73636 21.6071C6.73636 22.5496 6.40888 23.3507 5.75398 24.0104C5.09907 24.6701 4.30379 25 3.36818 25ZM3.36818 23.2143C3.84091 23.2143 4.225 23.0655 4.52045 22.7679C4.81591 22.4702 4.96364 22.0833 4.96364 21.6071C4.96364 21.131 4.81591 20.744 4.52045 20.4464C4.225 20.1488 3.84091 20 3.36818 20C2.89545 20 2.51136 20.1488 2.21591 20.4464C1.92045 20.744 1.77273 21.131 1.77273 21.6071C1.77273 22.0833 1.92045 22.4702 2.21591 22.7679C2.51136 23.0655 2.89545 23.2143 3.36818 23.2143ZM7.32727 25C7.54396 24.7421 7.736 24.4494 7.90341 24.122C8.07081 23.7946 8.19396 23.4921 8.27273 23.2143H11.6409V14.2857C11.6409 13.5409 11.3777 12.9033 10.8512 12.3729C10.3247 11.8426 9.69168 11.5774 8.95227 11.5774H3.01364V16.4286C2.73788 16.4286 2.4375 16.4683 2.1125 16.5476C1.7875 16.627 1.49697 16.7361 1.24091 16.875V9.79167H4.93409V5.2381C4.93409 3.80952 5.44623 2.57936 6.47045 1.54762C7.49468 0.515875 8.71591 0 10.1341 0C11.2371 0 12.2219 0.287696 13.0886 0.863095C13.9553 1.43849 14.5955 2.23214 15.0091 3.24405L23.2227 23.2143H26V25H18.1409V23.2143H21.3909L13.2659 3.9881C12.9705 3.29365 12.5617 2.75298 12.0398 2.36607C11.5178 1.97917 10.8826 1.78571 10.1341 1.78571C9.18864 1.78571 8.38104 2.12302 7.71136 2.79762C7.04169 3.47222 6.70682 4.28571 6.70682 5.2381V9.79167H8.957C10.1948 9.79167 11.2469 10.2282 12.1136 11.1012C12.9803 11.9742 13.4136 13.0357 13.4136 14.2857V25H7.32727Z" fill="black"/>
</svg>