<svg xmlns="http://www.w3.org/2000/svg" width="24" height="24" viewBox="0 0 24 24" fill="none">
  <path d="M12.739 15.1916L6.09592 21.8346C4.87296 23.0574 2.89017 23.0574 1.66721 21.8346C0.444263 20.6117 0.444263 18.6289 1.66721 17.4059L8.31027 10.7632M21.1532 2.34841C22.4821 3.67729 19.5582 7.4869 17.6106 9.43442C15.663 11.3819 10.9676 15.1915 9.63865 13.8627M21.1532 2.34841C19.8243 1.01954 16.0152 3.94405 14.0676 5.89157C12.12 7.8391 8.3097 12.5338 9.63865 13.8627M9.63865 13.8627C7.19272 11.4169 8.67681 5.96728 11.49 3.15419C14.3032 0.341104 18.7074 -0.0974222 21.1532 2.34841C23.5992 4.79424 23.1606 9.19824 20.3474 12.0113C17.5342 14.8245 12.0845 16.3085 9.63865 13.8627Z" stroke="black" stroke-width="1.5"/>
</svg>