<svg xmlns="http://www.w3.org/2000/svg" width="28" height="28" viewBox="0 0 28 28" fill="none">
  <g clip-path="url(#clip0_641_3884)">
    <path d="M7.55078 14.8069H27.1556M7.55078 2.4577H27.1556V27.1807H7.55078V2.4577Z" stroke="black" stroke-width="1.40441" stroke-miterlimit="10"/>
    <path d="M11.0126 11.3628H16.4782M4.10758 4.04102H0.847656V10.8845M18.0751 23.6469H23.5406M15.3838 5.97137V8.19496C16.0927 9.10199 16.4778 10.2201 16.4778 11.3713V14.8068H11.0126V11.3713C11.0126 10.2201 11.3977 9.10199 12.1066 8.19496V5.97137H15.3838ZM5.96972 27.1807H7.55004V0.819214H5.96972C4.9413 0.819214 4.10758 1.65293 4.10758 2.68135V25.3185C4.10758 26.347 4.9413 27.1807 5.96972 27.1807ZM20.0849 7.32126H23.6204V14.8252H20.0849V7.32126ZM22.4462 18.2555V20.4791C23.1551 21.3861 23.5402 22.5042 23.5402 23.6554V27.1807H18.0751V23.6554C18.0751 22.5042 18.4601 21.3861 19.169 20.4791V18.2555H22.4462ZM11.2736 19.6953H14.6658V27.1807H11.2736V19.6953Z" stroke="black" stroke-width="1.40441" stroke-miterlimit="10"/>
  </g>
  <defs>
    <clipPath id="clip0_641_3884">
      <rect width="28" height="28" fill="white"/>
    </clipPath>
  </defs>
</svg>